<svg width="50" height="50" viewBox="0 0 50 50" fill="none" xmlns="http://www.w3.org/2000/svg">
<g clip-path="url(#clip0_221_85)">
<path d="M46.4153 49.8918H6.38979C4.47521 49.8918 2.92188 48.3398 2.92188 46.4268V6.4353C2.92188 4.52235 4.47521 2.97034 6.38979 2.97034H46.4153C48.3299 2.97034 49.8832 4.52235 49.8832 6.4353V46.4268C49.8832 48.3398 48.3299 49.8918 46.4153 49.8918Z" fill="#063DCC"/>
<path d="M46.4153 49.9979H6.38983C4.41788 49.9979 2.81567 48.3949 2.81567 46.4268V6.43526C2.81567 4.46499 4.42001 2.86414 6.38983 2.86414H46.4153C48.3873 2.86414 49.9895 4.46711 49.9895 6.43526V46.4268C49.9895 48.3949 48.3852 49.9979 46.4153 49.9979ZM6.38983 3.07645C4.53688 3.07645 3.02817 4.58388 3.02817 6.43526V46.4268C3.02817 48.2781 4.53688 49.7856 6.38983 49.7856H46.4153C48.2683 49.7856 49.777 48.2781 49.777 46.4268V6.43526C49.777 4.58388 48.2683 3.07645 46.4153 3.07645H6.38983Z" fill="#231F20"/>
<path d="M43.5996 47.0276H3.57411C1.65954 47.0276 0.106201 45.4756 0.106201 43.5627V3.57117C0.106201 1.65822 1.65954 0.106201 3.57411 0.106201H43.5996C45.5142 0.106201 47.0675 1.65822 47.0675 3.57117V43.5627C47.0675 45.4756 45.5142 47.0276 43.5996 47.0276Z" fill="#FFFEFA"/>
<path d="M43.5997 47.1338H3.57416C1.60433 47.1338 0 45.5308 0 43.5626V3.57113C0 1.60297 1.60433 0 3.57416 0H43.5997C45.5695 0 47.1738 1.60297 47.1738 3.57113V43.5605C47.1738 45.5308 45.5695 47.1338 43.5997 47.1338ZM3.57416 0.212314C1.72121 0.212314 0.212495 1.71975 0.212495 3.57113V43.5605C0.212495 45.414 1.72121 46.9214 3.57416 46.9214H43.5997C45.4526 46.9214 46.9613 45.414 46.9613 43.5626V3.57113C46.9613 1.71975 45.4526 0.212314 43.5997 0.212314H3.57416Z" fill="#231F20"/>
<path d="M41.6191 12.5945L38.2872 9.26541C37.7517 8.73038 36.8848 8.73038 36.3493 9.26541L18.2596 27.3397C17.7241 27.8748 16.8571 27.8748 16.3217 27.3397L10.8202 21.8429C10.2847 21.3079 9.4177 21.3079 8.88221 21.8429L5.5503 25.172C5.01481 25.707 5.01481 26.5733 5.5503 27.1083L12.0208 33.5733L16.3217 37.8705C16.8571 38.4055 17.7241 38.4055 18.2596 37.8705L22.5605 33.5733L41.6191 14.5308C42.1546 13.9958 42.1546 13.1295 41.6191 12.5945Z" fill="#063DCC"/>
<path d="M17.2927 38.3736C16.9145 38.3736 16.5362 38.2293 16.2494 37.9426L5.478 27.1804C5.19963 26.9023 5.04663 26.5308 5.04663 26.138C5.04663 25.7452 5.19963 25.3736 5.478 25.0955L8.80991 21.7664C9.08828 21.4883 9.46014 21.3354 9.85326 21.3354C10.2464 21.3354 10.6182 21.4883 10.8966 21.7664L16.3981 27.2632C16.8911 27.7558 17.6922 27.7558 18.1852 27.2632L36.2748 9.18893C36.5532 8.9108 36.9251 8.75793 37.3182 8.75793C37.7113 8.75793 38.0832 8.9108 38.3615 9.18893L41.6935 12.518C41.9718 12.7962 42.1248 13.1677 42.1248 13.5605C42.1248 13.9533 41.9718 14.3248 41.6935 14.6029L18.336 37.9426C18.0492 38.2293 17.6709 38.3736 17.2927 38.3736ZM9.85326 21.5477C9.53027 21.5477 9.20515 21.6709 8.95866 21.9172L5.62674 25.2463C5.13375 25.7388 5.13375 26.5393 5.62674 27.0318L16.4002 37.7919C16.8932 38.2845 17.6943 38.2845 18.1873 37.7919L41.5447 14.4543C42.0377 13.9618 42.0377 13.1613 41.5447 12.6688L38.2128 9.3418C37.7198 8.84923 36.9187 8.84923 36.4257 9.3418L18.336 27.4161C17.7602 27.9915 16.8231 27.9915 16.2494 27.4161L10.7479 21.9193C10.5014 21.6709 10.1784 21.5477 9.85326 21.5477Z" fill="#231F20"/>
</g>
<defs>
<clipPath id="clip0_221_85">
<rect width="50" height="50" fill="white"/>
</clipPath>
</defs>
</svg>
