<svg width="57" height="52" viewBox="0 0 57 52" fill="none" xmlns="http://www.w3.org/2000/svg">
<path fill-rule="evenodd" clip-rule="evenodd" d="M27.043 47.5742L24.7383 49.2539C24.4766 49.4414 24.2148 49.6211 23.9414 49.793C22.6172 50.6328 21.1562 51.2617 19.5625 51.5977C19.1523 51.6836 18.7344 51.75 18.3164 51.793C17.8789 51.8359 17.4609 51.8594 17.0625 51.8594C16.6641 51.8594 16.2422 51.8359 15.8047 51.793C15.3867 51.75 14.9688 51.6836 14.5625 51.5977C12.3516 51.1328 10.3867 50.0977 8.69141 48.7148C6.78125 47.1602 5.20703 45.1641 3.99609 43.0664C2.65625 40.75 1.67578 38.2031 1.02344 35.5781C0.328126 32.7656 0 29.8594 0 27.0391C0 24.2188 0.328126 21.3125 1.02344 18.5C1.67578 15.8711 2.65625 13.3281 3.99609 11.0078C5.20703 8.91016 6.78125 6.91797 8.69141 5.35938C8.91797 5.17578 9.14844 5 9.38281 4.82812L12.4297 2.61328C13.9609 1.5 15.6914 0.664062 17.6094 0.265625C18.0156 0.179687 18.4336 0.113281 18.8555 0.070312C19.2891 0.023437 19.707 0 20.1094 0C20.5078 0 20.9258 0.023437 21.3633 0.070312C21.7852 0.113281 22.1992 0.179687 22.6094 0.265625C24.2031 0.597656 25.668 1.23047 26.9922 2.07031C27.9844 2.69922 28.9062 3.45313 29.7461 4.28516L32.0469 2.61328C32.6719 2.16016 33.3281 1.75391 34.0117 1.40234C35.75 0.519531 37.6641 0 39.7227 0C40.1211 0 40.543 0.023437 40.9805 0.070312C41.3984 0.113281 41.8125 0.179687 42.2227 0.265625C44.4336 0.726562 46.3945 1.76562 48.0938 3.14453C50.0039 4.70312 51.5781 6.69531 52.7891 8.79297C53.5586 10.1211 54.207 11.5234 54.7422 12.9688C55.2969 14.4609 55.7305 16.0195 56.0586 17.6094C56.3008 18.7852 56.4805 19.9766 56.6016 21.168C56.7227 22.4102 56.7852 23.6328 56.7852 24.8242C56.7852 26.1523 56.7109 27.5117 56.5586 28.8789C56.4102 30.2031 56.1875 31.5195 55.8906 32.8164C55.5625 34.2461 55.1328 35.6602 54.6016 37.0391C54.0937 38.3594 53.4883 39.6406 52.7891 40.8516C51.5781 42.9492 50.0039 44.9414 48.0938 46.5C47.8672 46.6836 47.6367 46.8594 47.4023 47.0312L44.3555 49.2461C42.8203 50.3633 41.0937 51.1953 39.1758 51.5977C38.7656 51.6836 38.3516 51.75 37.9297 51.793C37.4961 51.8359 37.0742 51.8594 36.6758 51.8594C34.6172 51.8594 32.7031 51.3438 30.9648 50.457C29.5273 49.7227 28.2109 48.7344 27.043 47.5742Z" fill="#063DCC"/>
<path fill-rule="evenodd" clip-rule="evenodd" d="M29.918 43.4297C27.9336 45.7461 25.3984 47.582 22.3672 48.2188C21.625 48.375 20.8672 48.4531 20.1094 48.4531C19.3516 48.4531 18.5937 48.375 17.8516 48.2188C13.5234 47.3086 10.2109 43.9648 8.07031 40.2578C5.41016 35.6563 4.23828 30.1016 4.23828 24.8242C4.23828 19.543 5.41016 13.9883 8.07031 9.38672C10.2109 5.67969 13.5234 2.33594 17.8516 1.42578C18.5937 1.26953 19.3516 1.19141 20.1094 1.19141C20.8672 1.19141 21.625 1.26953 22.3672 1.42578C25.3984 2.0625 27.9336 3.89844 29.918 6.21484C29.9258 6.20313 29.9375 6.19141 29.9453 6.17578C32.4453 3.26953 35.8047 1.19141 39.7227 1.19141C40.4844 1.19141 41.2383 1.26953 41.9805 1.42578C46.3086 2.33594 49.6211 5.67969 51.7617 9.38672C53.2578 11.9766 54.2852 14.8711 54.8945 17.8438C55.3711 20.1406 55.5938 22.4922 55.5938 24.8242C55.5938 27.3945 55.3164 30.0117 54.7305 32.5508C54.1094 35.2617 53.1328 37.8867 51.7617 40.2578C49.6211 43.9648 46.3086 47.3086 41.9805 48.2188C41.2383 48.375 40.4844 48.4531 39.7227 48.4531C35.8047 48.4531 32.4453 46.375 29.9453 43.4648C29.9375 43.4531 29.9258 43.4414 29.918 43.4297Z" fill="black"/>
<path fill-rule="evenodd" clip-rule="evenodd" d="M39.7227 2.14453C45.1133 2.14453 49.8359 6.48828 52.457 13C51.5977 12.5703 50.6836 12.3398 49.7305 12.3398C45.8398 12.3398 42.5469 16.2031 41.418 21.543L49.7305 25.6094L41.3477 29.3281C42.4062 34.8477 45.7578 38.8828 49.7305 38.8828C50.3672 38.8828 50.9883 38.7773 51.582 38.582C48.8594 44.0039 44.5586 47.5 39.7227 47.5C36.3203 47.5 33.1797 45.7656 30.668 42.8477C34.0664 38.4688 36.2188 32.0195 36.2188 24.8242C36.2188 17.625 34.0664 11.1758 30.668 6.79688C33.1797 3.87891 36.3203 2.14453 39.7227 2.14453Z" fill="white"/>
<path fill-rule="evenodd" clip-rule="evenodd" d="M20.1094 2.14453C25.5 2.14453 30.2227 6.48828 32.8438 13.0039C31.9844 12.5742 31.0664 12.3398 30.1133 12.3398C26.2266 12.3398 22.9336 16.207 21.8047 21.543L30.1133 25.6094L21.7344 29.3281C22.7891 34.8477 26.1406 38.8789 30.1133 38.8789C30.75 38.8789 31.3711 38.7734 31.9688 38.5781C29.2422 44 24.9453 47.5 20.1094 47.5C11.8672 47.5 5.19141 37.3477 5.19141 24.8242C5.19141 12.2969 11.8672 2.14453 20.1094 2.14453Z" fill="white"/>
</svg>
