<svg width="873" height="175" viewBox="0 0 873 175" fill="none" xmlns="http://www.w3.org/2000/svg">
<path d="M257.208 134.176C252.515 134.176 247.736 133.579 242.872 132.384C238.093 131.275 234.083 129.781 230.84 127.904L231.608 110.112H235.32L239.288 118.944C240.483 121.419 241.72 123.467 243 125.088C244.28 126.709 245.987 127.947 248.12 128.8C249.571 129.397 250.936 129.824 252.216 130.08C253.581 130.251 255.075 130.336 256.696 130.336C261.901 130.336 265.997 129.013 268.984 126.368C272.056 123.637 273.592 120.053 273.592 115.616C273.592 111.605 272.525 108.448 270.392 106.144C268.344 103.84 265.016 101.621 260.408 99.488L255.16 97.184C247.992 94.0267 242.317 90.3573 238.136 86.176C234.04 81.9947 231.992 76.448 231.992 69.536C231.992 64.416 233.272 60.064 235.832 56.48C238.477 52.8107 242.104 49.9947 246.712 48.032C251.32 46.0693 256.696 45.088 262.84 45.088C267.363 45.088 271.587 45.6853 275.512 46.88C279.523 48.0747 283.021 49.696 286.008 51.744L285.112 67.616H281.4L276.664 58.016C275.299 55.2 273.976 53.1947 272.696 52C271.501 50.72 270.008 49.9093 268.216 49.568C267.192 49.3973 266.296 49.2693 265.528 49.184C264.845 49.0987 263.907 49.056 262.712 49.056C258.531 49.056 254.904 50.2933 251.832 52.768C248.845 55.1573 247.352 58.4853 247.352 62.752C247.352 66.848 248.504 70.176 250.808 72.736C253.112 75.296 256.44 77.5573 260.792 79.52L266.552 81.952C274.829 85.536 280.76 89.376 284.344 93.472C287.928 97.4827 289.72 102.645 289.72 108.96C289.72 116.469 286.861 122.571 281.144 127.264C275.512 131.872 267.533 134.176 257.208 134.176ZM411.798 133.792C405.995 133.792 400.747 132.555 396.054 130.08C391.361 127.52 387.649 123.851 384.918 119.072C382.273 114.208 380.95 108.32 380.95 101.408C380.95 94.496 382.443 88.608 385.43 83.744C388.417 78.88 392.385 75.168 397.334 72.608C402.369 69.9627 407.873 68.64 413.846 68.64C418.71 68.64 422.849 69.4507 426.262 71.072C429.675 72.6933 432.278 74.784 434.07 77.344C435.862 79.8187 436.758 82.464 436.758 85.28C436.758 87.6693 436.033 89.504 434.582 90.784C433.217 92.064 431.425 92.704 429.206 92.704C426.817 92.704 424.854 91.8507 423.318 90.144C421.867 88.4373 421.014 86.2613 420.758 83.616C420.673 81.9093 420.673 80.4587 420.758 79.264C420.929 78.0693 420.929 76.9173 420.758 75.808C420.417 74.3573 419.819 73.376 418.966 72.864C418.198 72.352 417.089 72.096 415.638 72.096C410.262 72.096 406.123 74.272 403.222 78.624C400.406 82.8907 398.998 89.8453 398.998 99.488C398.998 107.765 400.577 114.123 403.734 118.56C406.891 122.997 411.798 125.216 418.454 125.216C422.379 125.216 425.622 124.491 428.182 123.04C430.742 121.504 433.089 119.328 435.222 116.512L437.27 118.048C435.137 123.168 431.851 127.093 427.414 129.824C423.062 132.469 417.857 133.792 411.798 133.792ZM458.161 61.6C455.345 61.6 452.956 60.704 450.993 58.912C449.03 57.12 448.049 54.8587 448.049 52.128C448.049 49.312 449.03 47.0507 450.993 45.344C452.956 43.552 455.345 42.656 458.161 42.656C460.977 42.656 463.366 43.552 465.329 45.344C467.292 47.0507 468.273 49.312 468.273 52.128C468.273 54.8587 467.292 57.12 465.329 58.912C463.366 60.704 460.977 61.6 458.161 61.6ZM443.441 132V129.568L445.361 129.056C447.068 128.544 448.22 127.776 448.817 126.752C449.414 125.728 449.756 124.363 449.841 122.656V99.104C449.841 96.4587 449.841 94.0267 449.841 91.808C449.841 89.504 449.798 87.1573 449.713 84.768C449.713 83.0613 449.372 81.7387 448.689 80.8C448.092 79.776 446.94 79.0933 445.233 78.752L443.441 78.368V76.064L465.841 68.64L467.377 70.048L466.993 88.224V122.784C466.993 124.491 467.292 125.856 467.889 126.88C468.572 127.904 469.724 128.672 471.345 129.184L472.753 129.568V132H443.441ZM496.998 133.792C492.134 133.792 487.995 132.427 484.582 129.696C481.254 126.88 479.59 122.869 479.59 117.664C479.59 113.568 481.553 109.813 485.478 106.4C489.489 102.901 495.761 100.341 504.294 98.72C505.745 98.3787 507.409 98.08 509.286 97.824C511.249 97.4827 513.169 97.1413 515.046 96.8V87.712C515.046 81.9093 514.321 77.8987 512.87 75.68C511.419 73.4613 509.115 72.352 505.958 72.352H505.574C503.611 72.352 502.033 72.992 500.838 74.272C499.729 75.4667 499.003 77.472 498.662 80.288L498.278 81.952C498.022 85.3653 497.126 87.8827 495.59 89.504C494.054 91.04 492.134 91.808 489.83 91.808C487.697 91.808 485.905 91.168 484.454 89.888C483.089 88.5227 482.406 86.7733 482.406 84.64C482.406 81.1413 483.601 78.1973 485.99 75.808C488.379 73.4187 491.537 71.6267 495.462 70.432C499.473 69.2373 503.782 68.64 508.39 68.64C515.985 68.64 521.787 70.4747 525.798 74.144C529.809 77.8133 531.814 83.7867 531.814 92.064V120.608C531.814 124.277 533.563 126.112 537.062 126.112H540.006L541.286 127.52C539.75 129.483 538.043 130.976 536.166 132C534.289 133.109 531.729 133.664 528.486 133.664C524.817 133.664 521.873 132.811 519.654 131.104C517.521 129.312 516.113 126.965 515.43 124.064C512.699 126.965 510.011 129.312 507.366 131.104C504.721 132.896 501.265 133.792 496.998 133.792ZM504.422 125.6C506.129 125.6 507.75 125.216 509.286 124.448C510.822 123.68 512.742 122.4 515.046 120.608V100.128C512.827 100.469 510.566 100.896 508.262 101.408C504.593 102.261 501.606 103.84 499.302 106.144C497.083 108.448 495.974 111.563 495.974 115.488C495.974 118.901 496.742 121.461 498.278 123.168C499.899 124.789 501.947 125.6 504.422 125.6ZM544.444 132V129.568L546.364 129.056C549.18 128.117 550.588 125.984 550.588 122.656C550.588 119.755 550.588 116.853 550.588 113.952C550.673 110.965 550.716 108.021 550.716 105.12V56.48C550.716 54.688 550.417 53.3653 549.82 52.512C549.223 51.5733 548.071 50.8907 546.364 50.464L544.444 49.952V47.52L566.844 42.144L568.508 43.296L567.996 61.344V122.656C568.081 124.363 568.423 125.771 569.02 126.88C569.703 127.904 570.855 128.629 572.476 129.056L574.268 129.568V132H544.444Z" fill="white"/>
<path fill-rule="evenodd" clip-rule="evenodd" d="M346.517 53.7661C370.252 59.7109 384.68 83.7815 378.736 107.517C372.789 131.258 348.72 145.68 324.985 139.735C301.244 133.789 286.82 109.726 292.766 85.9847C298.711 62.2494 322.776 47.8198 346.517 53.7661Z" fill="#FFF6D2"/>
<path d="M345.59 57.4689C356.437 60.1857 365.157 67.0424 370.485 75.9316C375.813 84.8208 377.75 95.7426 375.034 106.59C372.317 117.437 365.46 126.156 356.571 131.484C347.682 136.812 336.76 138.75 325.913 136.033C315.066 133.316 306.347 126.459 301.018 117.57C295.69 108.681 293.753 97.7593 296.47 86.9122C299.186 76.0652 306.043 67.346 314.932 62.0177C323.822 56.6894 334.743 54.7521 345.59 57.4689ZM368.339 77.2229C363.34 68.8827 355.158 62.4506 344.981 59.9018C334.804 57.353 324.556 59.1689 316.216 64.168C307.882 69.1687 301.445 77.3436 298.897 87.5201C296.348 97.6966 298.17 107.946 303.163 116.285C308.163 124.619 316.344 131.057 326.521 133.606C336.697 136.155 346.947 134.333 355.286 129.34C363.62 124.339 370.052 116.157 372.601 105.98C375.15 95.8037 373.332 85.5615 368.339 77.2229Z" fill="#063DCC"/>
<path fill-rule="evenodd" clip-rule="evenodd" d="M329.459 73.8603C332.509 74.6242 333.788 80.0148 332.315 85.8952C330.842 91.7756 327.173 95.9267 324.123 95.1628C321.073 94.3989 319.8 89.0098 321.272 83.1294C322.745 77.249 326.409 73.0964 329.459 73.8603Z" fill="#063DCC"/>
<path fill-rule="evenodd" clip-rule="evenodd" d="M351.194 79.3042C354.244 80.0681 355.523 85.4587 354.05 91.3391C352.577 97.2195 348.908 101.371 345.858 100.607C342.808 99.8427 341.529 94.4522 343.001 88.5718C344.474 82.6913 348.144 78.5403 351.194 79.3042Z" fill="#063DCC"/>
<path d="M360.651 109.93C357.716 115.482 353.04 119.797 347.508 122.347C341.886 124.93 335.375 125.696 328.908 124.076C322.44 122.456 317.059 118.712 313.318 113.783C309.64 108.927 307.551 102.918 307.579 96.6374C307.156 96.4117 306.789 96.0926 306.504 95.7186C306.059 95.1279 305.813 94.3979 305.834 93.6338C305.854 93.1027 306.299 92.6845 306.83 92.704C307.361 92.7236 307.779 93.1688 307.76 93.7C307.751 94.013 307.852 94.3157 308.037 94.5576C308.218 94.7921 308.476 94.9702 308.79 95.049C309.105 95.1278 309.416 95.0923 309.687 94.9708C309.958 94.8433 310.19 94.6238 310.329 94.3435C310.568 93.8673 311.147 93.6718 311.625 93.9049C312.102 94.138 312.298 94.7167 312.059 95.1929C311.723 95.8782 311.161 96.412 310.491 96.7173C310.178 96.8596 309.852 96.9544 309.508 96.9944C309.556 102.72 311.491 108.186 314.851 112.622C318.331 117.208 323.348 120.691 329.377 122.201C335.406 123.711 341.467 123.003 346.704 120.6C351.752 118.27 356.041 114.363 358.782 109.336C358.497 109.138 358.248 108.899 358.045 108.628C357.599 108.043 357.354 107.307 357.381 106.545C357.395 106.012 357.84 105.594 358.371 105.613C358.902 105.633 359.321 106.078 359.301 106.609C359.292 106.922 359.393 107.225 359.578 107.467C359.759 107.701 360.017 107.879 360.332 107.958C360.646 108.037 360.958 108.001 361.228 107.88C361.499 107.752 361.731 107.533 361.871 107.253C362.11 106.777 362.688 106.581 363.166 106.814C363.644 107.047 363.839 107.626 363.6 108.102C363.264 108.787 362.702 109.321 362.033 109.627C361.605 109.822 361.13 109.93 360.651 109.93Z" fill="#063DCC"/>
<path fill-rule="evenodd" clip-rule="evenodd" d="M330.184 76.6274C330.932 76.8147 331.244 78.1353 330.883 79.5772C330.523 81.0132 329.625 82.0305 328.878 81.8433C328.13 81.656 327.817 80.3355 328.177 78.8995C328.538 77.4575 329.436 76.4402 330.184 76.6274Z" fill="#FFF6D2"/>
<path fill-rule="evenodd" clip-rule="evenodd" d="M352.271 82.159C353.018 82.3463 353.331 83.6669 352.97 85.1088C352.61 86.5448 351.712 87.5621 350.964 87.3749C350.217 87.1876 349.904 85.8671 350.264 84.4311C350.625 82.9892 351.523 81.9718 352.271 82.159Z" fill="#FFF6D2"/>
<path d="M20.224 132V129.312L25.344 128.288C28.928 127.52 30.72 125.429 30.72 122.016V87.072C30.72 81.0987 30.72 75.1253 30.72 69.152C30.72 63.1787 30.6773 57.2053 30.592 51.232H20.48C17.7493 51.232 15.744 51.9573 14.464 53.408C13.184 54.8587 11.904 56.9067 10.624 59.552L6.144 69.024H2.56L3.2 47.392H76.672L77.312 69.024H73.728L69.248 59.552C67.968 56.9067 66.688 54.8587 65.408 53.408C64.128 51.9573 62.1227 51.232 59.392 51.232H49.152V122.016C49.152 125.515 50.944 127.605 54.528 128.288L59.776 129.312V132H20.224ZM82.819 132V129.44L84.483 128.928C87.555 127.989 89.091 125.856 89.091 122.528V56.608C89.091 54.816 88.7923 53.4933 88.195 52.64C87.5977 51.7013 86.4457 51.0187 84.739 50.592L82.819 50.08V47.648L104.451 42.144L106.499 43.296L105.987 61.344V77.728C108.974 75.2533 112.216 73.12 115.715 71.328C119.299 69.536 123.139 68.64 127.235 68.64C132.867 68.64 137.262 70.2187 140.419 73.376C143.662 76.5333 145.283 81.3973 145.283 87.968V122.656C145.283 124.363 145.624 125.728 146.307 126.752C146.99 127.776 148.184 128.544 149.891 129.056L151.043 129.44V132H121.859V129.44L123.395 128.928C126.467 128.075 128.003 125.941 128.003 122.528V85.536C128.003 82.0373 127.406 79.6053 126.211 78.24C125.016 76.8747 122.926 76.192 119.939 76.192C117.891 76.192 115.715 76.576 113.411 77.344C111.192 78.112 108.846 79.392 106.371 81.184V122.784C106.371 124.491 106.712 125.856 107.395 126.88C108.078 127.904 109.23 128.629 110.851 129.056L112.003 129.44V132H82.819ZM188.188 68.64C193.564 68.64 198.172 69.7493 202.012 71.968C205.852 74.1867 208.796 77.2587 210.844 81.184C212.977 85.024 214.044 89.4613 214.044 94.496C214.044 95.6053 214.001 96.672 213.916 97.696C213.831 98.6347 213.66 99.5307 213.404 100.384H174.876C174.961 109.173 176.583 115.488 179.74 119.328C182.983 123.168 187.676 125.088 193.82 125.088C198.087 125.088 201.543 124.405 204.188 123.04C206.833 121.589 209.265 119.584 211.484 117.024L213.532 118.944C210.972 123.637 207.473 127.307 203.036 129.952C198.684 132.512 193.479 133.792 187.42 133.792C181.361 133.792 176.028 132.512 171.42 129.952C166.812 127.392 163.185 123.723 160.54 118.944C157.98 114.08 156.7 108.277 156.7 101.536C156.7 94.5387 158.193 88.608 161.18 83.744C164.252 78.88 168.177 75.168 172.956 72.608C177.82 69.9627 182.897 68.64 188.188 68.64ZM187.548 72.352C185.073 72.352 182.897 73.0773 181.02 74.528C179.228 75.8933 177.777 78.368 176.668 81.952C175.644 85.4507 175.047 90.4 174.876 96.8H197.788C198.727 88.1813 198.385 81.952 196.764 78.112C195.143 74.272 192.071 72.352 187.548 72.352Z" fill="white"/>
<path d="M661.72 134.176C653.443 134.176 645.976 132.469 639.32 129.056C632.664 125.643 627.373 120.608 623.448 113.952C619.608 107.296 617.688 99.1893 617.688 89.632C617.688 82.464 618.84 76.1067 621.144 70.56C623.533 65.0133 626.776 60.3627 630.872 56.608C635.053 52.768 639.832 49.9093 645.208 48.032C650.584 46.0693 656.301 45.088 662.36 45.088C667.053 45.088 671.448 45.6427 675.544 46.752C679.64 47.776 683.565 49.312 687.32 51.36L687.832 68.128H684.376L679 58.016C678.147 56.3093 677.208 54.7733 676.184 53.408C675.245 52.0427 674.008 51.0613 672.472 50.464C670.339 49.44 667.821 48.928 664.92 48.928C659.885 48.928 655.277 50.208 651.096 52.768C647 55.328 643.715 59.5947 641.24 65.568C638.765 71.456 637.528 79.52 637.528 89.76C637.528 99.9147 638.68 107.979 640.984 113.952C643.373 119.925 646.573 124.192 650.584 126.752C654.595 129.227 659.117 130.464 664.152 130.464C666.456 130.464 668.333 130.293 669.784 129.952C671.235 129.611 672.685 129.141 674.136 128.544C675.843 127.861 677.165 126.88 678.104 125.6C679.043 124.235 679.853 122.699 680.536 120.992L685.4 109.344H688.856L688.344 127.776C684.675 129.824 680.621 131.403 676.184 132.512C671.747 133.621 666.925 134.176 661.72 134.176ZM695.069 132V129.568L696.989 129.056C699.805 128.117 701.213 125.984 701.213 122.656C701.213 119.755 701.213 116.853 701.213 113.952C701.298 110.965 701.341 108.021 701.341 105.12V56.48C701.341 54.688 701.042 53.3653 700.445 52.512C699.848 51.5733 698.696 50.8907 696.989 50.464L695.069 49.952V47.52L717.469 42.144L719.133 43.296L718.621 61.344V122.656C718.706 124.363 719.048 125.771 719.645 126.88C720.328 127.904 721.48 128.629 723.101 129.056L724.893 129.568V132H695.069ZM752.975 133.792C749.647 133.792 746.618 133.195 743.887 132C741.156 130.72 738.98 128.672 737.359 125.856C735.823 122.955 735.098 119.157 735.183 114.464L735.567 82.336C735.567 80.4587 735.268 79.0933 734.671 78.24C734.074 77.3867 733.007 76.7893 731.471 76.448L729.935 75.936V73.632L751.823 69.408L753.231 70.816L752.591 88.864V117.92C752.591 120.821 753.359 122.955 754.895 124.32C756.516 125.6 758.522 126.24 760.911 126.24C763.386 126.24 765.604 125.899 767.567 125.216C769.615 124.448 771.706 123.339 773.839 121.888L774.223 82.464C774.223 80.5013 773.924 79.136 773.327 78.368C772.815 77.6 771.791 77.0027 770.255 76.576L768.847 76.192V73.888L790.223 69.408L791.631 70.816L791.247 88.864V122.4C791.247 124.192 791.46 125.643 791.887 126.752C792.399 127.776 793.466 128.544 795.087 129.056L796.751 129.568V132L775.119 133.28L773.967 125.216C771.066 127.691 767.908 129.739 764.495 131.36C761.082 132.981 757.242 133.792 752.975 133.792ZM823.186 133.664L802.194 132V129.568L803.474 129.312C806.802 128.544 808.466 126.411 808.466 122.912V56.352C808.466 54.6453 808.125 53.3227 807.442 52.384C806.845 51.4453 805.693 50.7627 803.986 50.336L802.322 49.952V47.648L824.21 42.144L825.874 43.296L825.362 61.344V74.784C831.421 70.688 837.949 68.64 844.946 68.64C852.114 68.64 858.045 71.2853 862.738 76.576C867.431 81.7813 869.778 89.8453 869.778 100.768C869.778 108.021 868.583 114.123 866.194 119.072C863.805 123.936 860.605 127.605 856.594 130.08C852.583 132.555 848.146 133.792 843.282 133.792C840.039 133.792 836.797 133.365 833.554 132.512C830.397 131.659 827.581 130.336 825.106 128.544L823.186 133.664ZM837.266 128.16C840.082 128.16 842.557 127.349 844.69 125.728C846.823 124.107 848.487 121.333 849.682 117.408C850.877 113.483 851.474 108.107 851.474 101.28C851.474 94.4533 850.919 89.12 849.81 85.28C848.701 81.44 847.079 78.752 844.946 77.216C842.898 75.68 840.423 74.912 837.522 74.912C833.682 74.912 829.757 76.0213 825.746 78.24V124.96C829.245 127.093 833.085 128.16 837.266 128.16Z" fill="white"/>
</svg>
