<svg width="909" height="175" viewBox="0 0 909 175" fill="none" xmlns="http://www.w3.org/2000/svg">
<path d="M257.208 134.176C252.515 134.176 247.736 133.579 242.872 132.384C238.093 131.275 234.083 129.781 230.84 127.904L231.608 110.112H235.32L239.288 118.944C240.483 121.419 241.72 123.467 243 125.088C244.28 126.709 245.987 127.947 248.12 128.8C249.571 129.397 250.936 129.824 252.216 130.08C253.581 130.251 255.075 130.336 256.696 130.336C261.901 130.336 265.997 129.013 268.984 126.368C272.056 123.637 273.592 120.053 273.592 115.616C273.592 111.605 272.525 108.448 270.392 106.144C268.344 103.84 265.016 101.621 260.408 99.488L255.16 97.184C247.992 94.0267 242.317 90.3573 238.136 86.176C234.04 81.9947 231.992 76.448 231.992 69.536C231.992 64.416 233.272 60.064 235.832 56.48C238.477 52.8107 242.104 49.9947 246.712 48.032C251.32 46.0693 256.696 45.088 262.84 45.088C267.363 45.088 271.587 45.6853 275.512 46.88C279.523 48.0747 283.021 49.696 286.008 51.744L285.112 67.616H281.4L276.664 58.016C275.299 55.2 273.976 53.1947 272.696 52C271.501 50.72 270.008 49.9093 268.216 49.568C267.192 49.3973 266.296 49.2693 265.528 49.184C264.845 49.0987 263.907 49.056 262.712 49.056C258.531 49.056 254.904 50.2933 251.832 52.768C248.845 55.1573 247.352 58.4853 247.352 62.752C247.352 66.848 248.504 70.176 250.808 72.736C253.112 75.296 256.44 77.5573 260.792 79.52L266.552 81.952C274.829 85.536 280.76 89.376 284.344 93.472C287.928 97.4827 289.72 102.645 289.72 108.96C289.72 116.469 286.861 122.571 281.144 127.264C275.512 131.872 267.533 134.176 257.208 134.176ZM439.923 133.792C434.12 133.792 428.872 132.555 424.179 130.08C419.486 127.52 415.774 123.851 413.043 119.072C410.398 114.208 409.075 108.32 409.075 101.408C409.075 94.496 410.568 88.608 413.555 83.744C416.542 78.88 420.51 75.168 425.459 72.608C430.494 69.9627 435.998 68.64 441.971 68.64C446.835 68.64 450.974 69.4507 454.387 71.072C457.8 72.6933 460.403 74.784 462.195 77.344C463.987 79.8187 464.883 82.464 464.883 85.28C464.883 87.6693 464.158 89.504 462.707 90.784C461.342 92.064 459.55 92.704 457.331 92.704C454.942 92.704 452.979 91.8507 451.443 90.144C449.992 88.4373 449.139 86.2613 448.883 83.616C448.798 81.9093 448.798 80.4587 448.883 79.264C449.054 78.0693 449.054 76.9173 448.883 75.808C448.542 74.3573 447.944 73.376 447.091 72.864C446.323 72.352 445.214 72.096 443.763 72.096C438.387 72.096 434.248 74.272 431.347 78.624C428.531 82.8907 427.123 89.8453 427.123 99.488C427.123 107.765 428.702 114.123 431.859 118.56C435.016 122.997 439.923 125.216 446.579 125.216C450.504 125.216 453.747 124.491 456.307 123.04C458.867 121.504 461.214 119.328 463.347 116.512L465.395 118.048C463.262 123.168 459.976 127.093 455.539 129.824C451.187 132.469 445.982 133.792 439.923 133.792ZM486.286 61.6C483.47 61.6 481.081 60.704 479.118 58.912C477.155 57.12 476.174 54.8587 476.174 52.128C476.174 49.312 477.155 47.0507 479.118 45.344C481.081 43.552 483.47 42.656 486.286 42.656C489.102 42.656 491.491 43.552 493.454 45.344C495.417 47.0507 496.398 49.312 496.398 52.128C496.398 54.8587 495.417 57.12 493.454 58.912C491.491 60.704 489.102 61.6 486.286 61.6ZM471.566 132V129.568L473.486 129.056C475.193 128.544 476.345 127.776 476.942 126.752C477.539 125.728 477.881 124.363 477.966 122.656V99.104C477.966 96.4587 477.966 94.0267 477.966 91.808C477.966 89.504 477.923 87.1573 477.838 84.768C477.838 83.0613 477.497 81.7387 476.814 80.8C476.217 79.776 475.065 79.0933 473.358 78.752L471.566 78.368V76.064L493.966 68.64L495.502 70.048L495.118 88.224V122.784C495.118 124.491 495.417 125.856 496.014 126.88C496.697 127.904 497.849 128.672 499.47 129.184L500.878 129.568V132H471.566ZM525.123 133.792C520.259 133.792 516.12 132.427 512.707 129.696C509.379 126.88 507.715 122.869 507.715 117.664C507.715 113.568 509.678 109.813 513.603 106.4C517.614 102.901 523.886 100.341 532.419 98.72C533.87 98.3787 535.534 98.08 537.411 97.824C539.374 97.4827 541.294 97.1413 543.171 96.8V87.712C543.171 81.9093 542.446 77.8987 540.995 75.68C539.544 73.4613 537.24 72.352 534.083 72.352H533.699C531.736 72.352 530.158 72.992 528.963 74.272C527.854 75.4667 527.128 77.472 526.787 80.288L526.403 81.952C526.147 85.3653 525.251 87.8827 523.715 89.504C522.179 91.04 520.259 91.808 517.955 91.808C515.822 91.808 514.03 91.168 512.579 89.888C511.214 88.5227 510.531 86.7733 510.531 84.64C510.531 81.1413 511.726 78.1973 514.115 75.808C516.504 73.4187 519.662 71.6267 523.587 70.432C527.598 69.2373 531.907 68.64 536.515 68.64C544.11 68.64 549.912 70.4747 553.923 74.144C557.934 77.8133 559.939 83.7867 559.939 92.064V120.608C559.939 124.277 561.688 126.112 565.187 126.112H568.131L569.411 127.52C567.875 129.483 566.168 130.976 564.291 132C562.414 133.109 559.854 133.664 556.611 133.664C552.942 133.664 549.998 132.811 547.779 131.104C545.646 129.312 544.238 126.965 543.555 124.064C540.824 126.965 538.136 129.312 535.491 131.104C532.846 132.896 529.39 133.792 525.123 133.792ZM532.547 125.6C534.254 125.6 535.875 125.216 537.411 124.448C538.947 123.68 540.867 122.4 543.171 120.608V100.128C540.952 100.469 538.691 100.896 536.387 101.408C532.718 102.261 529.731 103.84 527.427 106.144C525.208 108.448 524.099 111.563 524.099 115.488C524.099 118.901 524.867 121.461 526.403 123.168C528.024 124.789 530.072 125.6 532.547 125.6ZM572.569 132V129.568L574.489 129.056C577.305 128.117 578.713 125.984 578.713 122.656C578.713 119.755 578.713 116.853 578.713 113.952C578.798 110.965 578.841 108.021 578.841 105.12V56.48C578.841 54.688 578.542 53.3653 577.945 52.512C577.348 51.5733 576.196 50.8907 574.489 50.464L572.569 49.952V47.52L594.969 42.144L596.633 43.296L596.121 61.344V122.656C596.206 124.363 596.548 125.771 597.145 126.88C597.828 127.904 598.98 128.629 600.601 129.056L602.393 129.568V132H572.569Z" fill="white"/>
<path d="M20.224 132V129.312L25.344 128.288C28.928 127.52 30.72 125.429 30.72 122.016V87.072C30.72 81.0987 30.72 75.1253 30.72 69.152C30.72 63.1787 30.6773 57.2053 30.592 51.232H20.48C17.7493 51.232 15.744 51.9573 14.464 53.408C13.184 54.8587 11.904 56.9067 10.624 59.552L6.144 69.024H2.56L3.2 47.392H76.672L77.312 69.024H73.728L69.248 59.552C67.968 56.9067 66.688 54.8587 65.408 53.408C64.128 51.9573 62.1227 51.232 59.392 51.232H49.152V122.016C49.152 125.515 50.944 127.605 54.528 128.288L59.776 129.312V132H20.224ZM82.819 132V129.44L84.483 128.928C87.555 127.989 89.091 125.856 89.091 122.528V56.608C89.091 54.816 88.7923 53.4933 88.195 52.64C87.5977 51.7013 86.4457 51.0187 84.739 50.592L82.819 50.08V47.648L104.451 42.144L106.499 43.296L105.987 61.344V77.728C108.974 75.2533 112.216 73.12 115.715 71.328C119.299 69.536 123.139 68.64 127.235 68.64C132.867 68.64 137.262 70.2187 140.419 73.376C143.662 76.5333 145.283 81.3973 145.283 87.968V122.656C145.283 124.363 145.624 125.728 146.307 126.752C146.99 127.776 148.184 128.544 149.891 129.056L151.043 129.44V132H121.859V129.44L123.395 128.928C126.467 128.075 128.003 125.941 128.003 122.528V85.536C128.003 82.0373 127.406 79.6053 126.211 78.24C125.016 76.8747 122.926 76.192 119.939 76.192C117.891 76.192 115.715 76.576 113.411 77.344C111.192 78.112 108.846 79.392 106.371 81.184V122.784C106.371 124.491 106.712 125.856 107.395 126.88C108.078 127.904 109.23 128.629 110.851 129.056L112.003 129.44V132H82.819ZM188.188 68.64C193.564 68.64 198.172 69.7493 202.012 71.968C205.852 74.1867 208.796 77.2587 210.844 81.184C212.977 85.024 214.044 89.4613 214.044 94.496C214.044 95.6053 214.001 96.672 213.916 97.696C213.831 98.6347 213.66 99.5307 213.404 100.384H174.876C174.961 109.173 176.583 115.488 179.74 119.328C182.983 123.168 187.676 125.088 193.82 125.088C198.087 125.088 201.543 124.405 204.188 123.04C206.833 121.589 209.265 119.584 211.484 117.024L213.532 118.944C210.972 123.637 207.473 127.307 203.036 129.952C198.684 132.512 193.479 133.792 187.42 133.792C181.361 133.792 176.028 132.512 171.42 129.952C166.812 127.392 163.185 123.723 160.54 118.944C157.98 114.08 156.7 108.277 156.7 101.536C156.7 94.5387 158.193 88.608 161.18 83.744C164.252 78.88 168.177 75.168 172.956 72.608C177.82 69.9627 182.897 68.64 188.188 68.64ZM187.548 72.352C185.073 72.352 182.897 73.0773 181.02 74.528C179.228 75.8933 177.777 78.368 176.668 81.952C175.644 85.4507 175.047 90.4 174.876 96.8H197.788C198.727 88.1813 198.385 81.952 196.764 78.112C195.143 74.272 192.071 72.352 187.548 72.352Z" fill="white"/>
<path d="M661.72 134.176C653.443 134.176 645.976 132.469 639.32 129.056C632.664 125.643 627.373 120.608 623.448 113.952C619.608 107.296 617.688 99.1893 617.688 89.632C617.688 82.464 618.84 76.1067 621.144 70.56C623.533 65.0133 626.776 60.3627 630.872 56.608C635.053 52.768 639.832 49.9093 645.208 48.032C650.584 46.0693 656.301 45.088 662.36 45.088C667.053 45.088 671.448 45.6427 675.544 46.752C679.64 47.776 683.565 49.312 687.32 51.36L687.832 68.128H684.376L679 58.016C678.147 56.3093 677.208 54.7733 676.184 53.408C675.245 52.0427 674.008 51.0613 672.472 50.464C670.339 49.44 667.821 48.928 664.92 48.928C659.885 48.928 655.277 50.208 651.096 52.768C647 55.328 643.715 59.5947 641.24 65.568C638.765 71.456 637.528 79.52 637.528 89.76C637.528 99.9147 638.68 107.979 640.984 113.952C643.373 119.925 646.573 124.192 650.584 126.752C654.595 129.227 659.117 130.464 664.152 130.464C666.456 130.464 668.333 130.293 669.784 129.952C671.235 129.611 672.685 129.141 674.136 128.544C675.843 127.861 677.165 126.88 678.104 125.6C679.043 124.235 679.853 122.699 680.536 120.992L685.4 109.344H688.856L688.344 127.776C684.675 129.824 680.621 131.403 676.184 132.512C671.747 133.621 666.925 134.176 661.72 134.176ZM695.069 132V129.568L696.989 129.056C699.805 128.117 701.213 125.984 701.213 122.656C701.213 119.755 701.213 116.853 701.213 113.952C701.298 110.965 701.341 108.021 701.341 105.12V56.48C701.341 54.688 701.042 53.3653 700.445 52.512C699.848 51.5733 698.696 50.8907 696.989 50.464L695.069 49.952V47.52L717.469 42.144L719.133 43.296L718.621 61.344V122.656C718.706 124.363 719.048 125.771 719.645 126.88C720.328 127.904 721.48 128.629 723.101 129.056L724.893 129.568V132H695.069ZM752.975 133.792C749.647 133.792 746.618 133.195 743.887 132C741.156 130.72 738.98 128.672 737.359 125.856C735.823 122.955 735.098 119.157 735.183 114.464L735.567 82.336C735.567 80.4587 735.268 79.0933 734.671 78.24C734.074 77.3867 733.007 76.7893 731.471 76.448L729.935 75.936V73.632L751.823 69.408L753.231 70.816L752.591 88.864V117.92C752.591 120.821 753.359 122.955 754.895 124.32C756.516 125.6 758.522 126.24 760.911 126.24C763.386 126.24 765.604 125.899 767.567 125.216C769.615 124.448 771.706 123.339 773.839 121.888L774.223 82.464C774.223 80.5013 773.924 79.136 773.327 78.368C772.815 77.6 771.791 77.0027 770.255 76.576L768.847 76.192V73.888L790.223 69.408L791.631 70.816L791.247 88.864V122.4C791.247 124.192 791.46 125.643 791.887 126.752C792.399 127.776 793.466 128.544 795.087 129.056L796.751 129.568V132L775.119 133.28L773.967 125.216C771.066 127.691 767.908 129.739 764.495 131.36C761.082 132.981 757.242 133.792 752.975 133.792ZM823.186 133.664L802.194 132V129.568L803.474 129.312C806.802 128.544 808.466 126.411 808.466 122.912V56.352C808.466 54.6453 808.125 53.3227 807.442 52.384C806.845 51.4453 805.693 50.7627 803.986 50.336L802.322 49.952V47.648L824.21 42.144L825.874 43.296L825.362 61.344V74.784C831.421 70.688 837.949 68.64 844.946 68.64C852.114 68.64 858.045 71.2853 862.738 76.576C867.431 81.7813 869.778 89.8453 869.778 100.768C869.778 108.021 868.583 114.123 866.194 119.072C863.805 123.936 860.605 127.605 856.594 130.08C852.583 132.555 848.146 133.792 843.282 133.792C840.039 133.792 836.797 133.365 833.554 132.512C830.397 131.659 827.581 130.336 825.106 128.544L823.186 133.664ZM837.266 128.16C840.082 128.16 842.557 127.349 844.69 125.728C846.823 124.107 848.487 121.333 849.682 117.408C850.877 113.483 851.474 108.107 851.474 101.28C851.474 94.4533 850.919 89.12 849.81 85.28C848.701 81.44 847.079 78.752 844.946 77.216C842.898 75.68 840.423 74.912 837.522 74.912C833.682 74.912 829.757 76.0213 825.746 78.24V124.96C829.245 127.093 833.085 128.16 837.266 128.16ZM889.7 133.792C886.713 133.792 884.153 132.768 882.02 130.72C879.972 128.672 878.948 126.197 878.948 123.296C878.948 120.309 879.972 117.749 882.02 115.616C884.153 113.483 886.713 112.416 889.7 112.416C892.687 112.416 895.204 113.483 897.252 115.616C899.385 117.749 900.452 120.309 900.452 123.296C900.452 126.197 899.385 128.672 897.252 130.72C895.204 132.768 892.687 133.792 889.7 133.792Z" fill="white"/>
<g clip-path="url(#clip0_208_70)">
<path d="M366.384 109.43C359.765 115.461 351.328 117.444 343.234 114.871C335.14 112.299 329.395 105.809 327.472 97.0635C327.351 96.375 327.501 95.6663 327.89 95.0854C328.279 94.5045 328.877 94.0964 329.56 93.9463C330.243 93.7962 330.957 93.9157 331.554 94.2799C332.15 94.6441 332.583 95.2247 332.762 95.9006C334.285 102.803 338.585 107.706 344.876 109.705C351.166 111.704 357.521 110.187 362.736 105.427C362.995 105.169 363.304 104.967 363.644 104.832C363.984 104.697 364.348 104.633 364.713 104.642C365.078 104.651 365.438 104.734 365.771 104.886C366.103 105.038 366.402 105.256 366.648 105.526C366.894 105.796 367.083 106.113 367.203 106.459C367.324 106.804 367.373 107.17 367.349 107.534C367.324 107.899 367.226 108.255 367.06 108.581C366.894 108.907 366.664 109.196 366.384 109.43ZM394.537 105.579C391.776 114.265 386.502 121.936 379.382 127.625C372.261 133.313 363.614 136.761 354.533 137.535C345.453 138.309 336.347 136.372 328.367 131.97C320.387 127.568 313.891 120.899 309.701 112.806C305.512 104.712 303.816 95.5583 304.829 86.5012C305.842 77.4442 309.518 68.8908 315.392 61.9229C321.266 54.955 329.074 49.8853 337.83 47.3551C346.585 44.8249 355.894 44.9478 364.579 47.7082C376.217 51.422 385.907 59.6005 391.524 70.4495C397.14 81.2986 398.223 93.9322 394.537 105.579ZM389.37 103.937C391.806 96.2736 391.914 88.0598 389.682 80.3346C387.449 72.6094 382.976 65.7197 376.828 60.5367C370.68 55.3537 363.133 52.1103 355.141 51.2166C347.15 50.3229 339.073 51.819 331.931 55.5157C324.79 59.2125 318.905 64.9438 315.022 71.985C311.138 79.0262 309.429 87.061 310.111 95.0733C310.794 103.086 313.837 110.716 318.856 116.999C323.875 123.281 330.644 127.935 338.308 130.37C348.584 133.624 359.732 132.668 369.305 127.713C378.878 122.757 386.094 114.207 389.37 103.937ZM336.492 82.3913C337.343 82.6619 338.256 82.6739 339.114 82.4259C339.972 82.1778 340.738 81.6808 341.314 80.9977C341.89 80.3145 342.25 79.476 342.349 78.588C342.449 77.7001 342.282 76.8026 341.872 76.0091C341.461 75.2157 340.824 74.5618 340.042 74.1303C339.259 73.6987 338.367 73.5089 337.476 73.5847C336.586 73.6605 335.738 73.9987 335.04 74.5563C334.342 75.114 333.825 75.8661 333.555 76.7176C333.192 77.8595 333.297 79.0987 333.848 80.1627C334.399 81.2267 335.35 82.0284 336.492 82.3913ZM370.227 83.6324C369.375 83.3618 368.462 83.3497 367.604 83.5978C366.746 83.8458 365.98 84.3429 365.404 85.026C364.828 85.7091 364.468 86.5477 364.369 87.4356C364.269 88.3236 364.436 89.221 364.846 90.0145C365.257 90.808 365.894 91.4618 366.676 91.8934C367.459 92.3249 368.351 92.5148 369.242 92.4389C370.132 92.3631 370.98 92.025 371.678 91.4673C372.376 90.9097 372.893 90.1575 373.164 89.306C373.526 88.1642 373.421 86.9249 372.87 85.8609C372.319 84.7969 371.368 83.9953 370.227 83.6324Z" fill="#FFB3F7"/>
</g>
<defs>
<clipPath id="clip0_208_70">
<rect width="115.649" height="115.649" fill="white" transform="translate(313.029 19) rotate(17.6311)"/>
</clipPath>
</defs>
</svg>
