<svg width="64" height="64" viewBox="0 0 64 64" fill="none" xmlns="http://www.w3.org/2000/svg">
<g clip-path="url(#clip0_215_62)">
<path d="M50.4891 51.8842L32.6225 57.8599C31.4379 58.2559 30.1358 57.5259 29.884 56.3223L28.528 49.8498C28.1253 47.9268 26.6662 46.3215 24.7145 45.6479C24.7005 45.643 24.6852 45.6377 24.6712 45.6329L24.5603 45.5947C21.6786 44.6 19.1959 42.813 17.3796 40.4252C15.6114 38.1004 14.599 35.3704 14.451 32.5316C14.3997 31.5443 14.5636 30.5781 14.9151 29.6876C11.0238 26.3017 9.40236 20.8503 11.379 15.9081C13.717 10.0637 20.417 6.98875 26.7331 8.86367C29.2382 9.60707 31.348 11.008 32.9269 12.7991C34.2128 12.3658 35.6008 12.2934 36.9319 12.5798C37.0714 12.4441 37.2164 12.3131 37.3683 12.1871C40.4119 9.66814 45.0849 10.0662 47.7834 13.0745C52.6803 18.5328 54.2285 26.2537 51.8227 33.224C51.1901 35.0566 50.2588 36.8256 49.0539 38.4784C48.1268 39.7518 47.9651 41.352 48.6223 42.7609L51.6406 49.2338C52.1324 50.2955 51.6047 51.5106 50.4891 51.8842Z" fill="#063DCC"/>
<path d="M26.4125 13.465C26.465 13.0405 26.8652 12.7483 27.307 12.8108C27.7487 12.8734 28.0631 13.2679 28.0107 13.6924L27.4877 17.9093C27.4352 18.3339 27.035 18.6261 26.5932 18.5635C26.5389 18.5556 26.4863 18.5429 26.4353 18.5253C26.0786 18.4022 25.8424 18.0537 25.8895 17.6819L26.4125 13.465ZM19.1001 20.3052L15.5604 17.6563C15.2045 17.3904 14.7004 17.4466 14.4334 17.7821C14.1678 18.118 14.2403 18.6061 14.5958 18.8731L18.1355 21.5221C18.2069 21.5753 18.2855 21.6161 18.3658 21.6438C18.6856 21.7541 19.05 21.6648 19.2625 21.3963C19.5285 21.0591 19.456 20.5711 19.1001 20.3052ZM21.4504 18.5847C21.5457 18.8001 21.727 18.9566 21.9384 19.0296C22.1181 19.0916 22.32 19.0932 22.5072 19.0217C22.9151 18.8642 23.1053 18.4123 22.9292 18.0138L21.1881 14.0491C21.0133 13.651 20.5405 13.4552 20.1309 13.6134C19.723 13.7709 19.5328 14.2227 19.7089 14.6212L21.4504 18.5847ZM48.755 49.5765C48.67 49.7732 48.5026 49.9238 48.2945 49.9936L33.15 55.0594C32.9776 55.117 32.7884 55.1157 32.6151 55.0559C32.568 55.0397 32.5208 55.0193 32.4766 54.9945C32.2701 54.8783 32.1248 54.6838 32.0782 54.4593L31.0249 49.4314C30.4359 46.6188 28.3003 44.2761 25.4493 43.3166L25.3576 43.285C24.4632 42.9763 23.6161 42.5763 22.8268 42.0914C21.5113 41.2847 20.3579 40.2438 19.4192 39.0101C19.418 39.0097 19.4184 39.0084 19.4175 39.0068C17.9557 37.0832 17.1179 34.8262 16.9954 32.4796C16.9201 31.0414 17.5427 29.6711 18.6662 28.7665C18.315 27.3923 18.5974 25.8883 19.5711 24.7154C22.2733 21.459 26.6136 19.946 30.8617 20.6291C30.3975 18.9504 30.9215 17.1185 32.3168 15.9631C33.8953 14.6572 36.1361 14.5304 37.8955 15.5421C38.166 14.994 38.5541 14.4933 39.0591 14.0752C41.0512 12.4259 44.1094 12.6861 45.876 14.6563C50.1724 19.4458 51.5236 26.242 49.4009 32.3922C48.844 34.0058 48.0201 35.5667 46.9541 37.0319C45.5364 38.9789 45.2865 41.5414 46.3021 43.721L48.744 48.9598C48.8359 49.1563 48.84 49.3797 48.755 49.5765ZM32.7856 21.0943C32.8548 21.1168 32.9232 21.1377 32.992 21.1615C36.0801 22.2273 38.5899 24.3819 40.0566 27.2291C40.1411 27.3931 40.2206 27.5595 40.2971 27.7261C40.2984 27.7307 40.3018 27.7332 40.3043 27.7382C40.315 27.7609 40.3244 27.7832 40.3338 27.8055C40.3603 27.8651 40.3856 27.9242 40.4121 27.9837C40.4343 28.035 40.4561 28.0874 40.4783 28.1387C40.489 28.1655 40.5014 28.1916 40.5121 28.2184C41.1271 25.4741 40.4511 22.6451 38.6484 20.6352C37.733 19.6151 37.3431 18.3325 37.4547 17.1045C36.2427 16.1878 34.5448 16.1914 33.3834 17.1524C32.2152 18.1206 31.966 19.8009 32.7856 21.0943ZM46.9217 48.7953L44.8357 44.322C43.5859 41.6436 43.8904 38.4979 45.6259 36.1131C46.6066 34.767 47.361 33.3373 47.87 31.8624C49.8138 26.2307 48.5876 20.0182 44.6688 15.6505C43.4907 14.3383 41.452 14.1644 40.1244 15.2641C38.7967 16.3638 38.674 18.3261 39.8521 19.6384C42.2552 22.3172 42.9835 26.1925 41.755 29.7519C41.6286 30.1182 41.4814 30.4786 41.3184 30.8269C41.2982 30.8689 41.275 30.9072 41.2497 30.9434C41.3691 31.7704 41.3987 32.6059 41.3341 33.4334C41.3008 33.8604 40.9146 34.1697 40.4708 34.1255C40.4033 34.1185 40.3396 34.1047 40.2785 34.0836C39.9358 33.9654 39.7001 33.6362 39.7281 33.274C39.8171 32.1281 39.7003 30.9629 39.3864 29.84C39.3847 29.8326 39.3817 29.8248 39.38 29.8173C39.3542 29.7267 39.3272 29.6357 39.2997 29.5459C39.2929 29.5244 39.2856 29.5042 39.28 29.4832C39.2564 29.407 39.2311 29.3315 39.2046 29.2556C39.193 29.2231 39.1815 29.1905 39.1695 29.1591C39.1459 29.0951 39.1237 29.0316 39.0988 28.9672C39.083 28.9263 39.0672 28.8855 39.0513 28.8446C39.0291 28.7892 39.0081 28.7343 38.9846 28.6786C38.9662 28.6327 38.9461 28.5877 38.9265 28.5414C38.9042 28.4901 38.8829 28.4405 38.8606 28.3893C38.785 28.2202 38.7047 28.0522 38.6193 27.8865C37.3452 25.4149 35.1675 23.5452 32.4871 22.6201C28.2601 21.1611 23.5795 22.4001 20.838 25.7042C19.7229 27.0475 19.9455 29.0296 21.3333 30.1228C21.6314 30.3578 21.9637 30.5392 22.3204 30.6623C23.258 30.9859 24.3041 30.8758 25.1226 30.367C25.1645 30.3407 25.2056 30.3126 25.2454 30.2841C25.2754 30.2632 25.3063 30.2439 25.3351 30.2225C25.3753 30.1928 25.4138 30.1597 25.4535 30.1272C25.4793 30.1061 25.5064 30.0855 25.5326 30.0632C25.5757 30.025 25.6163 29.9859 25.6561 29.9451C25.6755 29.926 25.6958 29.9085 25.714 29.8889C25.7723 29.8273 25.8281 29.7648 25.8821 29.699C25.9421 29.6244 26.0059 29.5552 26.0697 29.486C26.0812 29.4736 26.0943 29.4604 26.1057 29.448C26.1657 29.3856 26.2274 29.3266 26.2917 29.2684C26.312 29.2509 26.3323 29.2334 26.353 29.2147C26.4101 29.1649 26.4676 29.1181 26.5277 29.0721C26.5607 29.0467 26.595 29.0217 26.6305 28.9972C26.6644 28.9735 26.6982 28.9498 26.7333 28.9265C27.7511 28.2414 29.0708 28.0364 30.3148 28.414C30.3356 28.4198 30.356 28.4269 30.3768 28.4327C30.4078 28.442 30.4392 28.4501 30.4711 28.4611C30.4864 28.4664 30.5 28.4725 30.5148 28.479C30.759 28.5646 30.9978 28.6742 31.229 28.8058C32.8405 29.7297 33.648 31.5786 33.1941 33.3027C32.875 34.5122 32.0063 35.4721 30.8083 35.9356C29.8688 36.2991 28.8369 36.3106 27.881 35.9821C27.8797 35.9816 27.8784 35.9812 27.8759 35.9803C27.8733 35.9794 27.8708 35.9785 27.867 35.9772C27.7778 35.9464 27.6899 35.912 27.6028 35.8752C27.5879 35.8687 27.5731 35.8622 27.5595 35.8561C27.4095 35.7907 27.2617 35.7193 27.1176 35.6369C26.5541 35.3157 26.0847 34.8705 25.7343 34.345C25.7134 34.3147 25.6929 34.2831 25.6724 34.2515C25.6584 34.2303 25.646 34.2083 25.6324 34.1859C25.2826 33.6213 25.0671 32.9776 25.0325 32.3052C25.0299 32.2634 25.0246 32.2207 25.0215 32.1802C25.0198 32.1687 25.0193 32.1576 25.018 32.1449C23.9991 32.4823 22.8627 32.4824 21.8168 32.1214C21.2805 31.9362 20.7829 31.6637 20.3367 31.3123C19.9557 31.0119 19.6338 30.6679 19.3713 30.2927C18.8435 30.8759 18.5615 31.6433 18.6037 32.4423C18.7099 34.4809 19.4376 36.4412 20.7077 38.1107C22.0102 39.8227 23.7926 41.1065 25.8616 41.8206L25.9405 41.8479C29.3475 42.9979 31.8973 45.7968 32.6022 49.1615L33.4676 53.2924L46.9217 48.7953ZM30.174 34.4937C30.9064 34.2099 31.4388 33.6215 31.6344 32.8815C31.9124 31.828 31.4195 30.6992 30.4374 30.1368C29.5457 29.6262 28.4546 29.6813 27.6641 30.2201C27.6569 30.2244 27.651 30.2292 27.6434 30.2347C27.5947 30.2683 27.5477 30.3052 27.5021 30.3426C27.4898 30.3533 27.4767 30.3624 27.4644 30.3732C27.4238 30.4082 27.3837 30.4461 27.3452 30.4832C27.3321 30.4964 27.3181 30.5079 27.3063 30.5215C27.2573 30.5727 27.2095 30.6243 27.1643 30.6809C27.0946 30.7671 27.0207 30.8492 26.9446 30.9292C26.9285 30.9468 26.9108 30.9652 26.8947 30.9828C26.8195 31.0603 26.7404 31.1365 26.6601 31.2082C26.6478 31.2189 26.636 31.2285 26.6254 31.2384C26.5844 31.2747 26.5421 31.3105 26.4998 31.3463C26.5196 31.4212 26.5368 31.4952 26.5523 31.57C26.554 31.5774 26.5545 31.5844 26.5566 31.5906C26.5769 31.6888 26.5929 31.787 26.606 31.8854C26.609 31.9055 26.6117 31.9269 26.6147 31.947C26.6256 32.0352 26.6352 32.1229 26.6402 32.2118C26.6729 32.712 26.8361 33.1769 27.102 33.5628C27.1089 33.572 27.1157 33.5812 27.1221 33.5916C27.1383 33.6148 27.1562 33.6374 27.1736 33.6611C27.4369 33.9971 27.7856 34.2714 28.1922 34.4484C28.2096 34.4558 28.2261 34.4615 28.2436 34.4689C28.2758 34.4828 28.3098 34.4959 28.3442 34.5077C28.9405 34.7217 29.5864 34.7213 30.174 34.4937Z" fill="white"/>
</g>
<defs>
<clipPath id="clip0_215_62">
<rect width="50" height="50" fill="white" transform="translate(16.5244 0.211426) rotate(19.0419)"/>
</clipPath>
</defs>
</svg>
