<svg xmlns="http://www.w3.org/2000/svg" >
    <symbol id="close" xmlns="http://www.w3.org/2000/svg" viewBox="0 0 256 256"><rect width="256" height="256" fill="none"/><line x1="200" y1="56" x2="56" y2="200" stroke="currentColor" stroke-linecap="round" stroke-linejoin="round" stroke-width="16"/><line x1="200" y1="200" x2="56" y2="56" stroke="currentColor" stroke-linecap="round" stroke-linejoin="round" stroke-width="16"/></symbol>
    <symbol id="envelope" xmlns="http://www.w3.org/2000/svg" viewBox="0 0 256 256"><rect width="256" height="256" fill="none"/><polyline points="224 56 128 144 32 56" fill="none" stroke="currentColor" stroke-linecap="round" stroke-linejoin="round" stroke-width="16"/><path d="M32,56H224a0,0,0,0,1,0,0V192a8,8,0,0,1-8,8H40a8,8,0,0,1-8-8V56A0,0,0,0,1,32,56Z" fill="none" stroke="currentColor" stroke-linecap="round" stroke-linejoin="round" stroke-width="16"/><line x1="110.55" y1="128" x2="34.47" y2="197.74" fill="none" stroke="currentColor" stroke-linecap="round" stroke-linejoin="round" stroke-width="16"/><line x1="221.53" y1="197.74" x2="145.45" y2="128" fill="none" stroke="currentColor" stroke-linecap="round" stroke-linejoin="round" stroke-width="16"/></symbol>
    <symbol id="phone" xmlns="http://www.w3.org/2000/svg" viewBox="0 0 256 256"><rect width="256" height="256" fill="none"/><path d="M164.39,145.34a8,8,0,0,1,7.59-.69l47.16,21.13a8,8,0,0,1,4.8,8.3A48.33,48.33,0,0,1,176,216,136,136,0,0,1,40,80,48.33,48.33,0,0,1,81.92,32.06a8,8,0,0,1,8.3,4.8l21.13,47.2a8,8,0,0,1-.66,7.53L89.32,117a7.93,7.93,0,0,0-.54,7.81c8.27,16.93,25.77,34.22,42.75,42.41a7.92,7.92,0,0,0,7.83-.59Z" fill="none" stroke="currentColor" stroke-linecap="round" stroke-linejoin="round" stroke-width="16"/></symbol>
    <symbol id="menu" xmlns="http://www.w3.org/2000/svg" viewBox="0 0 256 256"><rect width="256" height="256" fill="none"/><line x1="40" y1="128" x2="216" y2="128" fill="none" stroke="currentColor" stroke-linecap="round" stroke-linejoin="round" stroke-width="16"/><line x1="40" y1="64" x2="216" y2="64" fill="none" stroke="currentColor" stroke-linecap="round" stroke-linejoin="round" stroke-width="16"/><line x1="40" y1="192" x2="216" y2="192" fill="none" stroke="currentColor" stroke-linecap="round" stroke-linejoin="round" stroke-width="16"/></symbol>
    <symbol id="instagram" xmlns="http://www.w3.org/2000/svg" viewBox="0 0 256 256"><rect width="256" height="256" fill="none"/><circle cx="128" cy="128" r="40" fill="none" stroke="currentColor" stroke-miterlimit="10" stroke-width="16"/><rect x="32" y="32" width="192" height="192" rx="48" fill="none" stroke="currentColor" stroke-linecap="round" stroke-linejoin="round" stroke-width="16"/><circle cx="180" cy="76" r="12"/></symbol>
    <symbol id="tiktok" xmlns="http://www.w3.org/2000/svg" viewBox="0 0 256 256"><rect width="256" height="256" fill="none"/><path d="M168,102a95.55,95.55,0,0,0,56,18V80a56,56,0,0,1-56-56H128V156a28,28,0,1,1-40-25.31V88c-31.83,5.67-56,34.54-56,68a68,68,0,0,0,136,0Z" fill="none" stroke="currentColor" stroke-linecap="round" stroke-linejoin="round" stroke-width="16"/></symbol>
    <symbol id="close" xmlns="http://www.w3.org/2000/svg" viewBox="0 0 256 256"><rect width="256" height="256" fill="none"/><line x1="200" y1="56" x2="56" y2="200" stroke="currentColor" stroke-linecap="round" stroke-linejoin="round" stroke-width="16"/><line x1="200" y1="200" x2="56" y2="56" stroke="currentColor" stroke-linecap="round" stroke-linejoin="round" stroke-width="16"/></symbol>
    <symbol id="linkedin" xmlns="http://www.w3.org/2000/svg" viewBox="0 0 256 256"><rect width="256" height="256" fill="none"/><rect x="32" y="32" width="192" height="192" rx="8" fill="none" stroke="currentColor" stroke-linecap="round" stroke-linejoin="round" stroke-width="16"/><line x1="120" y1="112" x2="120" y2="176" fill="none" stroke="currentColor" stroke-linecap="round" stroke-linejoin="round" stroke-width="16"/><line x1="88" y1="112" x2="88" y2="176" fill="none" stroke="currentColor" stroke-linecap="round" stroke-linejoin="round" stroke-width="16"/><path d="M120,140a28,28,0,0,1,56,0v36" fill="none" stroke="currentColor" stroke-linecap="round" stroke-linejoin="round" stroke-width="16"/><circle cx="88" cy="84" r="12"/></symbol>
    <symbol id="location" xmlns="http://www.w3.org/2000/svg" viewBox="0 0 256 256"><rect width="256" height="256" fill="none"/><circle cx="128" cy="104" r="32" fill="none" stroke="currentColor" stroke-linecap="round" stroke-linejoin="round" stroke-width="16"/><path d="M208,104c0,72-80,128-80,128S48,176,48,104a80,80,0,0,1,160,0Z" fill="none" stroke="currentColor" stroke-linecap="round" stroke-linejoin="round" stroke-width="16"/></symbol>
    <symbol id="team" xmlns="http://www.w3.org/2000/svg" viewBox="0 0 256 256"><rect width="256" height="256" fill="none"/><path d="M192,120a59.91,59.91,0,0,1,48,24" fill="none" stroke="currentColor" stroke-linecap="round" stroke-linejoin="round" stroke-width="16"/><path d="M16,144a59.91,59.91,0,0,1,48-24" fill="none" stroke="currentColor" stroke-linecap="round" stroke-linejoin="round" stroke-width="16"/><circle cx="128" cy="144" r="40" fill="none" stroke="currentColor" stroke-linecap="round" stroke-linejoin="round" stroke-width="16"/><path d="M72,216a65,65,0,0,1,112,0" fill="none" stroke="currentColor" stroke-linecap="round" stroke-linejoin="round" stroke-width="16"/><path d="M161,80a32,32,0,1,1,31,40" fill="none" stroke="currentColor" stroke-linecap="round" stroke-linejoin="round" stroke-width="16"/><path d="M64,120A32,32,0,1,1,95,80" fill="none" stroke="currentColor" stroke-linecap="round" stroke-linejoin="round" stroke-width="16"/></symbol>
    <symbol id="arrow-left" xmlns="http://www.w3.org/2000/svg" viewBox="0 0 256 256"><rect width="256" height="256" fill="none"/><polyline points="160 208 80 128 160 48" fill="none" stroke="currentColor" stroke-linecap="round" stroke-linejoin="round" stroke-width="16"/></symbol>
    <symbol id="arrow-right" xmlns="http://www.w3.org/2000/svg" viewBox="0 0 256 256"><rect width="256" height="256" fill="none"/><polyline points="96 48 176 128 96 208" fill="none" stroke="currentColor" stroke-linecap="round" stroke-linejoin="round" stroke-width="16"/></symbol>
    <symbol id="arrow-up-right" xmlns="http://www.w3.org/2000/svg" viewBox="0 0 256 256"><rect width="256" height="256" fill="none"/><line x1="64" y1="192" x2="192" y2="64" fill="none" stroke="currentColor" stroke-linecap="round" stroke-linejoin="round" stroke-width="16"/><polyline points="88 64 192 64 192 168" fill="none" stroke="currentColor" stroke-linecap="round" stroke-linejoin="round" stroke-width="16"/></symbol>
    <symbol id="mountains" xmlns="http://www.w3.org/2000/svg" viewBox="0 0 256 256"><rect width="256" height="256" fill="none"/><circle cx="164" cy="52" r="20" fill="none" stroke="currentColor" stroke-linecap="round" stroke-linejoin="round" stroke-width="16"/><path d="M8,200,81.1,75.94a8,8,0,0,1,13.8,0L168,200Z" fill="none" stroke="currentColor" stroke-linecap="round" stroke-linejoin="round" stroke-width="16"/><line x1="50.35" y1="128" x2="125.65" y2="128" fill="none" stroke="currentColor" stroke-linecap="round" stroke-linejoin="round" stroke-width="16"/><path d="M146.61,163.71l33.06-55.79a8,8,0,0,1,13.76,0L248,200H168" fill="none" stroke="currentColor" stroke-linecap="round" stroke-linejoin="round" stroke-width="16"/></symbol>
    <symbol id="music" xmlns="http://www.w3.org/2000/svg" viewBox="0 0 256 256"><rect width="256" height="256" fill="none"/><circle cx="88" cy="184" r="40" fill="none" stroke="currentColor" stroke-linecap="round" stroke-linejoin="round" stroke-width="16"/><polyline points="128 184 128 40 208 64 208 112 128 88" fill="none" stroke="currentColor" stroke-linecap="round" stroke-linejoin="round" stroke-width="16"/></symbol>
    <symbol id="wine" xmlns="http://www.w3.org/2000/svg" viewBox="0 0 256 256"><rect width="256" height="256" fill="none"/><line x1="128" y1="184" x2="128" y2="240" fill="none" stroke="currentColor" stroke-linecap="round" stroke-linejoin="round" stroke-width="16"/><line x1="88" y1="240" x2="168" y2="240" fill="none" stroke="currentColor" stroke-linecap="round" stroke-linejoin="round" stroke-width="16"/><path d="M80.09,32h95.82l21.79,73.93a55.84,55.84,0,0,1-15.22,56.56,79.76,79.76,0,0,1-109,0A55.86,55.86,0,0,1,58.3,105.93Z" fill="none" stroke="currentColor" stroke-linecap="round" stroke-linejoin="round" stroke-width="16"/><path d="M59.86,100.62C72.49,95.21,95.2,91.4,128,108c35.86,18.16,59.67,11.89,71.42,5.84" fill="none" stroke="currentColor" stroke-linecap="round" stroke-linejoin="round" stroke-width="16"/></symbol>
    <symbol id="palette" xmlns="http://www.w3.org/2000/svg" viewBox="0 0 256 256"><rect width="256" height="256" fill="none"/><path d="M128,192a24,24,0,0,1,24-24h46.21a24,24,0,0,0,23.4-18.65A96.48,96.48,0,0,0,224,127.17c-.45-52.82-44.16-95.7-97-95.17a96,96,0,0,0-95,96c0,41.81,26.73,73.44,64,86.61A24,24,0,0,0,128,192Z" fill="none" stroke="currentColor" stroke-linecap="round" stroke-linejoin="round" stroke-width="16"/><circle cx="128" cy="76" r="12"/><circle cx="84" cy="100" r="12"/><circle cx="84" cy="156" r="12"/><circle cx="172" cy="100" r="12"/></symbol>
</svg>
