<svg width="111" height="72" viewBox="0 0 111 72" fill="none" xmlns="http://www.w3.org/2000/svg">
<path d="M9.44 48.68C7.97333 48.68 6.48 48.4933 4.96 48.12C3.46667 47.7733 2.21333 47.3067 1.2 46.72L1.44 41.16H2.6L3.84 43.92C4.21333 44.6933 4.6 45.3333 5 45.84C5.4 46.3467 5.93333 46.7333 6.6 47C7.05333 47.1867 7.48 47.32 7.88 47.4C8.30667 47.4533 8.77333 47.48 9.28 47.48C10.9067 47.48 12.1867 47.0667 13.12 46.24C14.08 45.3867 14.56 44.2667 14.56 42.88C14.56 41.6267 14.2267 40.64 13.56 39.92C12.92 39.2 11.88 38.5067 10.44 37.84L8.8 37.12C6.56 36.1333 4.78667 34.9867 3.48 33.68C2.2 32.3733 1.56 30.64 1.56 28.48C1.56 26.88 1.96 25.52 2.76 24.4C3.58667 23.2533 4.72 22.3733 6.16 21.76C7.6 21.1467 9.28 20.84 11.2 20.84C12.6133 20.84 13.9333 21.0267 15.16 21.4C16.4133 21.7733 17.5067 22.28 18.44 22.92L18.16 27.88H17L15.52 24.88C15.0933 24 14.68 23.3733 14.28 23C13.9067 22.6 13.44 22.3467 12.88 22.24C12.56 22.1867 12.28 22.1467 12.04 22.12C11.8267 22.0933 11.5333 22.08 11.16 22.08C9.85333 22.08 8.72 22.4667 7.76 23.24C6.82667 23.9867 6.36 25.0267 6.36 26.36C6.36 27.64 6.72 28.68 7.44 29.48C8.16 30.28 9.2 30.9867 10.56 31.6L12.36 32.36C14.9467 33.48 16.8 34.68 17.92 35.96C19.04 37.2133 19.6 38.8267 19.6 40.8C19.6 43.1467 18.7067 45.0533 16.92 46.52C15.16 47.96 12.6667 48.68 9.44 48.68ZM57.7494 48.56C55.936 48.56 54.296 48.1733 52.8294 47.4C51.3627 46.6 50.2027 45.4533 49.3494 43.96C48.5227 42.44 48.1094 40.6 48.1094 38.44C48.1094 36.28 48.576 34.44 49.5094 32.92C50.4427 31.4 51.6827 30.24 53.2294 29.44C54.8027 28.6133 56.5227 28.2 58.3894 28.2C59.9094 28.2 61.2027 28.4533 62.2694 28.96C63.336 29.4667 64.1494 30.12 64.7094 30.92C65.2694 31.6933 65.5494 32.52 65.5494 33.4C65.5494 34.1467 65.3227 34.72 64.8694 35.12C64.4427 35.52 63.8827 35.72 63.1894 35.72C62.4427 35.72 61.8294 35.4533 61.3494 34.92C60.896 34.3867 60.6294 33.7067 60.5494 32.88C60.5227 32.3467 60.5227 31.8933 60.5494 31.52C60.6027 31.1467 60.6027 30.7867 60.5494 30.44C60.4427 29.9867 60.256 29.68 59.9894 29.52C59.7494 29.36 59.4027 29.28 58.9494 29.28C57.2694 29.28 55.976 29.96 55.0694 31.32C54.1894 32.6533 53.7494 34.8267 53.7494 37.84C53.7494 40.4267 54.2427 42.4133 55.2294 43.8C56.216 45.1867 57.7494 45.88 59.8294 45.88C61.056 45.88 62.0694 45.6533 62.8694 45.2C63.6694 44.72 64.4027 44.04 65.0694 43.16L65.7094 43.64C65.0427 45.24 64.016 46.4667 62.6294 47.32C61.2694 48.1467 59.6427 48.56 57.7494 48.56ZM72.2378 26C71.3578 26 70.6111 25.72 69.9978 25.16C69.3845 24.6 69.0778 23.8933 69.0778 23.04C69.0778 22.16 69.3845 21.4533 69.9978 20.92C70.6111 20.36 71.3578 20.08 72.2378 20.08C73.1178 20.08 73.8645 20.36 74.4778 20.92C75.0911 21.4533 75.3978 22.16 75.3978 23.04C75.3978 23.8933 75.0911 24.6 74.4778 25.16C73.8645 25.72 73.1178 26 72.2378 26ZM67.6378 48V47.24L68.2378 47.08C68.7711 46.92 69.1311 46.68 69.3178 46.36C69.5045 46.04 69.6111 45.6133 69.6378 45.08V37.72C69.6378 36.8933 69.6378 36.1333 69.6378 35.44C69.6378 34.72 69.6245 33.9867 69.5978 33.24C69.5978 32.7067 69.4911 32.2933 69.2778 32C69.0911 31.68 68.7311 31.4667 68.1978 31.36L67.6378 31.24V30.52L74.6378 28.2L75.1178 28.64L74.9978 34.32V45.12C74.9978 45.6533 75.0911 46.08 75.2778 46.4C75.4911 46.72 75.8511 46.96 76.3578 47.12L76.7978 47.24V48H67.6378ZM84.3744 48.56C82.8544 48.56 81.561 48.1333 80.4944 47.28C79.4544 46.4 78.9344 45.1467 78.9344 43.52C78.9344 42.24 79.5477 41.0667 80.7744 40C82.0277 38.9067 83.9877 38.1067 86.6544 37.6C87.1077 37.4933 87.6277 37.4 88.2144 37.32C88.8277 37.2133 89.4277 37.1067 90.0144 37V34.16C90.0144 32.3467 89.7877 31.0933 89.3344 30.4C88.881 29.7067 88.161 29.36 87.1744 29.36H87.0544C86.441 29.36 85.9477 29.56 85.5744 29.96C85.2277 30.3333 85.001 30.96 84.8944 31.84L84.7744 32.36C84.6944 33.4267 84.4144 34.2133 83.9344 34.72C83.4544 35.2 82.8544 35.44 82.1344 35.44C81.4677 35.44 80.9077 35.24 80.4544 34.84C80.0277 34.4133 79.8144 33.8667 79.8144 33.2C79.8144 32.1067 80.1877 31.1867 80.9344 30.44C81.681 29.6933 82.6677 29.1333 83.8944 28.76C85.1477 28.3867 86.4944 28.2 87.9344 28.2C90.3077 28.2 92.121 28.7733 93.3744 29.92C94.6277 31.0667 95.2544 32.9333 95.2544 35.52V44.44C95.2544 45.5867 95.801 46.16 96.8944 46.16H97.8144L98.2144 46.6C97.7344 47.2133 97.201 47.68 96.6144 48C96.0277 48.3467 95.2277 48.52 94.2144 48.52C93.0677 48.52 92.1477 48.2533 91.4544 47.72C90.7877 47.16 90.3477 46.4267 90.1344 45.52C89.281 46.4267 88.441 47.16 87.6144 47.72C86.7877 48.28 85.7077 48.56 84.3744 48.56ZM86.6944 46C87.2277 46 87.7344 45.88 88.2144 45.64C88.6944 45.4 89.2944 45 90.0144 44.44V38.04C89.321 38.1467 88.6144 38.28 87.8944 38.44C86.7477 38.7067 85.8144 39.2 85.0944 39.92C84.401 40.64 84.0544 41.6133 84.0544 42.84C84.0544 43.9067 84.2944 44.7067 84.7744 45.24C85.281 45.7467 85.921 46 86.6944 46ZM99.2013 48V47.24L99.8013 47.08C100.681 46.7867 101.121 46.12 101.121 45.08C101.121 44.1733 101.121 43.2667 101.121 42.36C101.148 41.4267 101.161 40.5067 101.161 39.6V24.4C101.161 23.84 101.068 23.4267 100.881 23.16C100.695 22.8667 100.335 22.6533 99.8013 22.52L99.2013 22.36V21.6L106.201 19.92L106.721 20.28L106.561 25.92V45.08C106.588 45.6133 106.695 46.0533 106.881 46.4C107.095 46.72 107.455 46.9467 107.961 47.08L108.521 47.24V48H99.2013Z" fill="#063DCC"/>
<path d="M3.16 21V20.58L3.96 20.42C4.52 20.3 4.8 19.9733 4.8 19.44V13.98C4.8 13.0467 4.8 12.1133 4.8 11.18C4.8 10.2467 4.79333 9.31333 4.78 8.38H3.2C2.77333 8.38 2.46 8.49333 2.26 8.72C2.06 8.94667 1.86 9.26667 1.66 9.68L0.96 11.16H0.4L0.5 7.78H11.98L12.08 11.16H11.52L10.82 9.68C10.62 9.26667 10.42 8.94667 10.22 8.72C10.02 8.49333 9.70667 8.38 9.28 8.38H7.68V19.44C7.68 19.9867 7.96 20.3133 8.52 20.42L9.34 20.58V21H3.16ZM12.9405 21V20.6L13.2005 20.52C13.6805 20.3733 13.9205 20.04 13.9205 19.52V9.22C13.9205 8.94 13.8738 8.73333 13.7805 8.6C13.6871 8.45333 13.5071 8.34667 13.2405 8.28L12.9405 8.2V7.82L16.3205 6.96L16.6405 7.14L16.5605 9.96V12.52C17.0271 12.1333 17.5338 11.8 18.0805 11.52C18.6405 11.24 19.2405 11.1 19.8805 11.1C20.7605 11.1 21.4471 11.3467 21.9405 11.84C22.4471 12.3333 22.7005 13.0933 22.7005 14.12V19.54C22.7005 19.8067 22.7538 20.02 22.8605 20.18C22.9671 20.34 23.1538 20.46 23.4205 20.54L23.6005 20.6V21H19.0405V20.6L19.2805 20.52C19.7605 20.3867 20.0005 20.0533 20.0005 19.52V13.74C20.0005 13.1933 19.9071 12.8133 19.7205 12.6C19.5338 12.3867 19.2071 12.28 18.7405 12.28C18.4205 12.28 18.0805 12.34 17.7205 12.46C17.3738 12.58 17.0071 12.78 16.6205 13.06V19.56C16.6205 19.8267 16.6738 20.04 16.7805 20.2C16.8871 20.36 17.0671 20.4733 17.3205 20.54L17.5005 20.6V21H12.9405ZM29.4044 11.1C30.2444 11.1 30.9644 11.2733 31.5644 11.62C32.1644 11.9667 32.6244 12.4467 32.9444 13.06C33.2777 13.66 33.4444 14.3533 33.4444 15.14C33.4444 15.3133 33.4377 15.48 33.4244 15.64C33.411 15.7867 33.3844 15.9267 33.3444 16.06H27.3244C27.3377 17.4333 27.591 18.42 28.0844 19.02C28.591 19.62 29.3244 19.92 30.2844 19.92C30.951 19.92 31.491 19.8133 31.9044 19.6C32.3177 19.3733 32.6977 19.06 33.0444 18.66L33.3644 18.96C32.9644 19.6933 32.4177 20.2667 31.7244 20.68C31.0444 21.08 30.231 21.28 29.2844 21.28C28.3377 21.28 27.5044 21.08 26.7844 20.68C26.0644 20.28 25.4977 19.7067 25.0844 18.96C24.6844 18.2 24.4844 17.2933 24.4844 16.24C24.4844 15.1467 24.7177 14.22 25.1844 13.46C25.6644 12.7 26.2777 12.12 27.0244 11.72C27.7844 11.3067 28.5777 11.1 29.4044 11.1ZM29.3044 11.68C28.9177 11.68 28.5777 11.7933 28.2844 12.02C28.0044 12.2333 27.7777 12.62 27.6044 13.18C27.4444 13.7267 27.351 14.5 27.3244 15.5H30.9044C31.051 14.1533 30.9977 13.18 30.7444 12.58C30.491 11.98 30.011 11.68 29.3044 11.68Z" fill="#063DCC"/>
<path d="M70.76 64.408C69.208 64.408 67.808 64.088 66.56 63.448C65.312 62.808 64.32 61.864 63.584 60.616C62.864 59.368 62.504 57.848 62.504 56.056C62.504 54.712 62.72 53.52 63.152 52.48C63.6 51.44 64.208 50.568 64.976 49.864C65.76 49.144 66.656 48.608 67.664 48.256C68.672 47.888 69.744 47.704 70.88 47.704C71.76 47.704 72.584 47.808 73.352 48.016C74.12 48.208 74.856 48.496 75.56 48.88L75.656 52.024H75.008L74 50.128C73.84 49.808 73.664 49.52 73.472 49.264C73.296 49.008 73.064 48.824 72.776 48.712C72.376 48.52 71.904 48.424 71.36 48.424C70.416 48.424 69.552 48.664 68.768 49.144C68 49.624 67.384 50.424 66.92 51.544C66.456 52.648 66.224 54.16 66.224 56.08C66.224 57.984 66.44 59.496 66.872 60.616C67.32 61.736 67.92 62.536 68.672 63.016C69.424 63.48 70.272 63.712 71.216 63.712C71.648 63.712 72 63.68 72.272 63.616C72.544 63.552 72.816 63.464 73.088 63.352C73.408 63.224 73.656 63.04 73.832 62.8C74.008 62.544 74.16 62.256 74.288 61.936L75.2 59.752H75.848L75.752 63.208C75.064 63.592 74.304 63.888 73.472 64.096C72.64 64.304 71.736 64.408 70.76 64.408ZM77.0129 64V63.544L77.3729 63.448C77.9009 63.272 78.1649 62.872 78.1649 62.248C78.1649 61.704 78.1649 61.16 78.1649 60.616C78.1809 60.056 78.1889 59.504 78.1889 58.96V49.84C78.1889 49.504 78.1329 49.256 78.0209 49.096C77.9089 48.92 77.6929 48.792 77.3729 48.712L77.0129 48.616V48.16L81.2129 47.152L81.5249 47.368L81.4289 50.752V62.248C81.4449 62.568 81.5089 62.832 81.6209 63.04C81.7489 63.232 81.9649 63.368 82.2689 63.448L82.6049 63.544V64H77.0129ZM87.8703 64.336C87.2463 64.336 86.6783 64.224 86.1663 64C85.6543 63.76 85.2463 63.376 84.9423 62.848C84.6543 62.304 84.5183 61.592 84.5343 60.712L84.6063 54.688C84.6063 54.336 84.5503 54.08 84.4383 53.92C84.3263 53.76 84.1263 53.648 83.8383 53.584L83.5503 53.488V53.056L87.6543 52.264L87.9183 52.528L87.7983 55.912V61.36C87.7983 61.904 87.9423 62.304 88.2303 62.56C88.5343 62.8 88.9103 62.92 89.3583 62.92C89.8223 62.92 90.2383 62.856 90.6063 62.728C90.9903 62.584 91.3823 62.376 91.7823 62.104L91.8543 54.712C91.8543 54.344 91.7983 54.088 91.6863 53.944C91.5903 53.8 91.3983 53.688 91.1103 53.608L90.8463 53.536V53.104L94.8543 52.264L95.1183 52.528L95.0463 55.912V62.2C95.0463 62.536 95.0863 62.808 95.1663 63.016C95.2623 63.208 95.4623 63.352 95.7663 63.448L96.0783 63.544V64L92.0223 64.24L91.8063 62.728C91.2623 63.192 90.6703 63.576 90.0303 63.88C89.3903 64.184 88.6703 64.336 87.8703 64.336ZM101.035 64.312L97.0989 64V63.544L97.3389 63.496C97.9629 63.352 98.2749 62.952 98.2749 62.296V49.816C98.2749 49.496 98.2109 49.248 98.0829 49.072C97.9709 48.896 97.7549 48.768 97.4349 48.688L97.1229 48.616V48.184L101.227 47.152L101.539 47.368L101.443 50.752V53.272C102.579 52.504 103.803 52.12 105.115 52.12C106.459 52.12 107.571 52.616 108.451 53.608C109.331 54.584 109.771 56.096 109.771 58.144C109.771 59.504 109.547 60.648 109.099 61.576C108.651 62.488 108.051 63.176 107.299 63.64C106.547 64.104 105.715 64.336 104.803 64.336C104.195 64.336 103.587 64.256 102.979 64.096C102.387 63.936 101.859 63.688 101.395 63.352L101.035 64.312ZM103.675 63.28C104.203 63.28 104.667 63.128 105.067 62.824C105.467 62.52 105.779 62 106.003 61.264C106.227 60.528 106.339 59.52 106.339 58.24C106.339 56.96 106.235 55.96 106.027 55.24C105.819 54.52 105.515 54.016 105.115 53.728C104.731 53.44 104.267 53.296 103.723 53.296C103.003 53.296 102.267 53.504 101.515 53.92V62.68C102.171 63.08 102.891 63.28 103.675 63.28Z" fill="#063DCC"/>
<path fill-rule="evenodd" clip-rule="evenodd" d="M37.5314 26.0924C44.3489 27.7999 48.4931 34.7137 46.7856 41.5313C45.0776 48.3505 38.1642 52.493 31.3467 50.7855C24.5274 49.0775 20.3845 42.1658 22.0925 35.3466C23.8 28.529 30.7121 24.3844 37.5314 26.0924Z" fill="#FFF6D2"/>
<path d="M37.2652 27.1559C40.3808 27.9363 42.8852 29.9057 44.4157 32.459C45.9461 35.0122 46.5026 38.1493 45.7222 41.2649C44.9419 44.3805 42.9724 46.885 40.4192 48.4154C37.8659 49.9459 34.7289 50.5023 31.6132 49.722C28.4976 48.9416 25.9932 46.9722 24.4628 44.4189C22.9323 41.8657 22.3759 38.7286 23.1562 35.613C23.9365 32.4974 25.906 29.9929 28.4592 28.4625C31.0125 26.932 34.1496 26.3756 37.2652 27.1559ZM43.7993 32.8299C42.3634 30.4343 40.0132 28.5868 37.0902 27.8547C34.1672 27.1226 31.2236 27.6442 28.828 29.0801C26.4342 30.5165 24.5854 32.8646 23.8533 35.7876C23.1212 38.7106 23.6445 41.6546 25.0787 44.0497C26.515 46.4436 28.8648 48.2928 31.7878 49.0249C34.7109 49.757 37.6549 49.2337 40.05 47.7995C42.4438 46.3631 44.2913 44.0129 45.0234 41.0899C45.7555 38.1669 45.2335 35.225 43.7993 32.8299Z" fill="#063DCC"/>
<path fill-rule="evenodd" clip-rule="evenodd" d="M32.6317 31.864C33.5078 32.0835 33.8753 33.6318 33.4522 35.3208C33.0292 37.0099 31.9752 38.2022 31.0992 37.9828C30.2231 37.7634 29.8573 36.2155 30.2804 34.5264C30.7034 32.8374 31.7557 31.6446 32.6317 31.864Z" fill="#063DCC"/>
<path fill-rule="evenodd" clip-rule="evenodd" d="M38.8746 33.4277C39.7507 33.6471 40.1182 35.1955 39.6951 36.8845C39.2721 38.5735 38.2182 39.7659 37.3421 39.5464C36.4661 39.327 36.0985 37.7787 36.5216 36.0896C36.9446 34.4006 37.9986 33.2083 38.8746 33.4277Z" fill="#063DCC"/>
<path d="M41.5912 42.2244C40.748 43.8191 39.4051 45.0586 37.8161 45.7909C36.2012 46.5329 34.3311 46.7528 32.4734 46.2875C30.6156 45.8222 29.07 44.7468 27.9955 43.3311C26.9393 41.9363 26.3391 40.2102 26.3472 38.4064C26.2258 38.3415 26.1201 38.2499 26.0383 38.1424C25.9106 37.9728 25.8399 37.7631 25.846 37.5436C25.8516 37.3911 25.9795 37.2709 26.132 37.2766C26.2846 37.2822 26.4047 37.4101 26.3991 37.5626C26.3965 37.6525 26.4254 37.7395 26.4787 37.809C26.5306 37.8763 26.6048 37.9275 26.6951 37.9501C26.7854 37.9727 26.8749 37.9625 26.9525 37.9276C27.0305 37.891 27.097 37.828 27.1371 37.7475C27.2058 37.6107 27.372 37.5545 27.5092 37.6215C27.6464 37.6884 27.7025 37.8547 27.6339 37.9914C27.5375 38.1883 27.3759 38.3416 27.1837 38.4293C27.0937 38.4702 27 38.4974 26.9011 38.5089C26.9149 40.1534 27.4707 41.7235 28.4358 42.9977C29.4354 44.3149 30.8766 45.3152 32.6083 45.749C34.3399 46.1827 36.0808 45.9793 37.585 45.2892C39.035 44.6199 40.267 43.4976 41.0543 42.0537C40.9725 41.997 40.901 41.9284 40.8426 41.8504C40.7144 41.6824 40.6442 41.471 40.652 41.252C40.6559 41.099 40.7838 40.9789 40.9363 40.9845C41.0889 40.9901 41.209 41.118 41.2034 41.2705C41.2008 41.3605 41.2297 41.4474 41.283 41.5169C41.3349 41.5842 41.409 41.6354 41.4994 41.658C41.5897 41.6807 41.6792 41.6705 41.7568 41.6356C41.8348 41.5989 41.9013 41.5359 41.9414 41.4554C42.01 41.3186 42.1763 41.2624 42.3135 41.3294C42.4506 41.3964 42.5068 41.5626 42.4381 41.6993C42.3418 41.8962 42.1802 42.0495 41.988 42.1372C41.8652 42.1934 41.7288 42.2245 41.5912 42.2244Z" fill="#063DCC"/>
<path fill-rule="evenodd" clip-rule="evenodd" d="M32.84 32.6589C33.0548 32.7126 33.1445 33.0919 33.0408 33.5061C32.9375 33.9186 32.6795 34.2108 32.4648 34.157C32.25 34.1032 32.1603 33.7239 32.2636 33.3115C32.3673 32.8973 32.6253 32.6051 32.84 32.6589Z" fill="#FFF6D2"/>
<path fill-rule="evenodd" clip-rule="evenodd" d="M39.184 34.2477C39.3988 34.3015 39.4885 34.6808 39.3848 35.095C39.2815 35.5074 39.0235 35.7997 38.8088 35.7459C38.594 35.6921 38.5043 35.3128 38.6076 34.9003C38.7113 34.4862 38.9693 34.1939 39.184 34.2477Z" fill="#FFF6D2"/>
</svg>
