<svg width="140" height="100" viewBox="0 0 140 100" fill="none" xmlns="http://www.w3.org/2000/svg">
<path d="M9.44 58.68C7.97333 58.68 6.48 58.4933 4.96 58.12C3.46667 57.7733 2.21333 57.3067 1.2 56.72L1.44 51.16H2.6L3.84 53.92C4.21333 54.6933 4.6 55.3333 5 55.84C5.4 56.3467 5.93333 56.7333 6.6 57C7.05333 57.1867 7.48 57.32 7.88 57.4C8.30667 57.4533 8.77333 57.48 9.28 57.48C10.9067 57.48 12.1867 57.0667 13.12 56.24C14.08 55.3867 14.56 54.2667 14.56 52.88C14.56 51.6267 14.2267 50.64 13.56 49.92C12.92 49.2 11.88 48.5067 10.44 47.84L8.8 47.12C6.56 46.1333 4.78667 44.9867 3.48 43.68C2.2 42.3733 1.56 40.64 1.56 38.48C1.56 36.88 1.96 35.52 2.76 34.4C3.58667 33.2533 4.72 32.3733 6.16 31.76C7.6 31.1467 9.28 30.84 11.2 30.84C12.6133 30.84 13.9333 31.0267 15.16 31.4C16.4133 31.7733 17.5067 32.28 18.44 32.92L18.16 37.88H17L15.52 34.88C15.0933 34 14.68 33.3733 14.28 33C13.9067 32.6 13.44 32.3467 12.88 32.24C12.56 32.1867 12.28 32.1467 12.04 32.12C11.8267 32.0933 11.5333 32.08 11.16 32.08C9.85333 32.08 8.72 32.4667 7.76 33.24C6.82667 33.9867 6.36 35.0267 6.36 36.36C6.36 37.64 6.72 38.68 7.44 39.48C8.16 40.28 9.2 40.9867 10.56 41.6L12.36 42.36C14.9467 43.48 16.8 44.68 17.92 45.96C19.04 47.2133 19.6 48.8267 19.6 50.8C19.6 53.1467 18.7067 55.0533 16.92 56.52C15.16 57.96 12.6667 58.68 9.44 58.68ZM70.4984 58.68C67.9118 58.68 65.5784 58.1467 63.4984 57.08C61.4184 56.0133 59.7651 54.44 58.5384 52.36C57.3384 50.28 56.7384 47.7467 56.7384 44.76C56.7384 42.52 57.0984 40.5333 57.8184 38.8C58.5651 37.0667 59.5784 35.6133 60.8584 34.44C62.1651 33.24 63.6584 32.3467 65.3384 31.76C67.0184 31.1467 68.8051 30.84 70.6984 30.84C72.1651 30.84 73.5384 31.0133 74.8184 31.36C76.0984 31.68 77.3251 32.16 78.4984 32.8L78.6584 38.04H77.5784L75.8984 34.88C75.6318 34.3467 75.3384 33.8667 75.0184 33.44C74.7251 33.0133 74.3384 32.7067 73.8584 32.52C73.1918 32.2 72.4051 32.04 71.4984 32.04C69.9251 32.04 68.4851 32.44 67.1784 33.24C65.8984 34.04 64.8718 35.3733 64.0984 37.24C63.3251 39.08 62.9384 41.6 62.9384 44.8C62.9384 47.9733 63.2984 50.4933 64.0184 52.36C64.7651 54.2267 65.7651 55.56 67.0184 56.36C68.2718 57.1333 69.6851 57.52 71.2584 57.52C71.9784 57.52 72.5651 57.4667 73.0184 57.36C73.4718 57.2533 73.9251 57.1067 74.3784 56.92C74.9118 56.7067 75.3251 56.4 75.6184 56C75.9118 55.5733 76.1651 55.0933 76.3784 54.56L77.8984 50.92H78.9784L78.8184 56.68C77.6718 57.32 76.4051 57.8133 75.0184 58.16C73.6318 58.5067 72.1251 58.68 70.4984 58.68ZM80.92 58V57.16L81.72 56.92C82.2533 56.7333 82.6 56.4933 82.76 56.2C82.9467 55.88 83.04 55.44 83.04 54.88V34.68C83.04 34.12 82.9467 33.6933 82.76 33.4C82.6 33.08 82.2533 32.8267 81.72 32.64L80.92 32.4V31.56H90.92V32.4L90.12 32.64C89.6133 32.8267 89.2667 33.08 89.08 33.4C88.8933 33.6933 88.8 34.12 88.8 34.68V54.88C88.8 55.44 88.8933 55.88 89.08 56.2C89.2667 56.4933 89.6133 56.7333 90.12 56.92L90.92 57.16V58H80.92ZM92.1159 58V57.16L93.1959 56.84C93.7559 56.68 94.1826 56.44 94.4759 56.12C94.7959 55.8 95.0493 55.36 95.2359 54.8L103.316 31.44H106.636L114.676 54.96C114.889 55.5467 115.129 56 115.396 56.32C115.663 56.6133 116.089 56.8533 116.676 57.04L117.276 57.2V58H107.116V57.2L107.796 57C108.383 56.8133 108.729 56.52 108.836 56.12C108.969 55.72 108.943 55.2267 108.756 54.64L107.076 49.48H98.2359L96.5159 54.56C96.3293 55.1467 96.2759 55.6267 96.3559 56C96.4359 56.3733 96.7693 56.6667 97.3559 56.88L98.2359 57.16V58H92.1159ZM98.6359 48.32H106.716L102.796 36.28L98.6359 48.32ZM118.537 58V57.16L119.337 56.92C119.897 56.7333 120.257 56.4933 120.417 56.2C120.577 55.88 120.657 55.44 120.657 54.88V34.64C120.657 34.1067 120.577 33.6933 120.417 33.4C120.257 33.08 119.911 32.8267 119.377 32.64L118.537 32.4V31.56H128.457V32.4L127.697 32.64C127.191 32.8267 126.844 33.08 126.657 33.4C126.497 33.72 126.417 34.16 126.417 34.72V56.8H132.297C133.204 56.8 133.884 56.5733 134.337 56.12C134.791 55.6667 135.217 55.0133 135.617 54.16L137.097 50.84H138.217L137.817 58H118.537Z" fill="#063DCC"/>
<path d="M53.792 25V24.496L54.752 24.304C55.424 24.16 55.76 23.768 55.76 23.128V16.576C55.76 15.456 55.76 14.336 55.76 13.216C55.76 12.096 55.752 10.976 55.736 9.856H53.84C53.328 9.856 52.952 9.992 52.712 10.264C52.472 10.536 52.232 10.92 51.992 11.416L51.152 13.192H50.48L50.6 9.136H64.376L64.496 13.192H63.824L62.984 11.416C62.744 10.92 62.504 10.536 62.264 10.264C62.024 9.992 61.648 9.856 61.136 9.856H59.216V23.128C59.216 23.784 59.552 24.176 60.224 24.304L61.208 24.496V25H53.792ZM65.5286 25V24.52L65.8406 24.424C66.4166 24.248 66.7046 23.848 66.7046 23.224V10.864C66.7046 10.528 66.6486 10.28 66.5366 10.12C66.4246 9.944 66.2086 9.816 65.8886 9.736L65.5286 9.64V9.184L69.5846 8.152L69.9686 8.368L69.8726 11.752V14.824C70.4326 14.36 71.0406 13.96 71.6966 13.624C72.3686 13.288 73.0886 13.12 73.8566 13.12C74.9126 13.12 75.7366 13.416 76.3286 14.008C76.9366 14.6 77.2406 15.512 77.2406 16.744V23.248C77.2406 23.568 77.3046 23.824 77.4326 24.016C77.5606 24.208 77.7846 24.352 78.1046 24.448L78.3206 24.52V25H72.8486V24.52L73.1366 24.424C73.7126 24.264 74.0006 23.864 74.0006 23.224V16.288C74.0006 15.632 73.8886 15.176 73.6646 14.92C73.4406 14.664 73.0486 14.536 72.4886 14.536C72.1046 14.536 71.6966 14.608 71.2646 14.752C70.8486 14.896 70.4086 15.136 69.9446 15.472V23.272C69.9446 23.592 70.0086 23.848 70.1366 24.04C70.2646 24.232 70.4806 24.368 70.7846 24.448L71.0006 24.52V25H65.5286ZM85.2853 13.12C86.2933 13.12 87.1573 13.328 87.8773 13.744C88.5973 14.16 89.1493 14.736 89.5333 15.472C89.9333 16.192 90.1333 17.024 90.1333 17.968C90.1333 18.176 90.1253 18.376 90.1093 18.568C90.0933 18.744 90.0613 18.912 90.0133 19.072H82.7893C82.8053 20.72 83.1093 21.904 83.7013 22.624C84.3093 23.344 85.1893 23.704 86.3413 23.704C87.1413 23.704 87.7893 23.576 88.2853 23.32C88.7813 23.048 89.2373 22.672 89.6533 22.192L90.0373 22.552C89.5573 23.432 88.9013 24.12 88.0693 24.616C87.2533 25.096 86.2773 25.336 85.1413 25.336C84.0053 25.336 83.0053 25.096 82.1413 24.616C81.2773 24.136 80.5973 23.448 80.1013 22.552C79.6213 21.64 79.3813 20.552 79.3813 19.288C79.3813 17.976 79.6613 16.864 80.2213 15.952C80.7973 15.04 81.5333 14.344 82.4293 13.864C83.3413 13.368 84.2933 13.12 85.2853 13.12ZM85.1653 13.816C84.7013 13.816 84.2933 13.952 83.9413 14.224C83.6053 14.48 83.3333 14.944 83.1253 15.616C82.9333 16.272 82.8213 17.2 82.7893 18.4H87.0853C87.2613 16.784 87.1973 15.616 86.8933 14.896C86.5893 14.176 86.0133 13.816 85.1653 13.816Z" fill="#063DCC"/>
<path d="M47.14 88.612C44.812 88.612 42.712 88.132 40.84 87.172C38.968 86.212 37.48 84.796 36.376 82.924C35.296 81.052 34.756 78.772 34.756 76.084C34.756 74.068 35.08 72.28 35.728 70.72C36.4 69.16 37.312 67.852 38.464 66.796C39.64 65.716 40.984 64.912 42.496 64.384C44.008 63.832 45.616 63.556 47.32 63.556C48.64 63.556 49.876 63.712 51.028 64.024C52.18 64.312 53.284 64.744 54.34 65.32L54.484 70.036H53.512L52 67.192C51.76 66.712 51.496 66.28 51.208 65.896C50.944 65.512 50.596 65.236 50.164 65.068C49.564 64.78 48.856 64.636 48.04 64.636C46.624 64.636 45.328 64.996 44.152 65.716C43 66.436 42.076 67.636 41.38 69.316C40.684 70.972 40.336 73.24 40.336 76.12C40.336 78.976 40.66 81.244 41.308 82.924C41.98 84.604 42.88 85.804 44.008 86.524C45.136 87.22 46.408 87.568 47.824 87.568C48.472 87.568 49 87.52 49.408 87.424C49.816 87.328 50.224 87.196 50.632 87.028C51.112 86.836 51.484 86.56 51.748 86.2C52.012 85.816 52.24 85.384 52.432 84.904L53.8 81.628H54.772L54.628 86.812C53.596 87.388 52.456 87.832 51.208 88.144C49.96 88.456 48.604 88.612 47.14 88.612ZM56.5194 88V87.316L57.0594 87.172C57.8514 86.908 58.2474 86.308 58.2474 85.372C58.2474 84.556 58.2474 83.74 58.2474 82.924C58.2714 82.084 58.2834 81.256 58.2834 80.44V66.76C58.2834 66.256 58.1994 65.884 58.0314 65.644C57.8634 65.38 57.5394 65.188 57.0594 65.068L56.5194 64.924V64.24L62.8194 62.728L63.2874 63.052L63.1434 68.128V85.372C63.1674 85.852 63.2634 86.248 63.4314 86.56C63.6234 86.848 63.9474 87.052 64.4034 87.172L64.9074 87.316V88H56.5194ZM72.8055 88.504C71.8695 88.504 71.0175 88.336 70.2495 88C69.4815 87.64 68.8695 87.064 68.4135 86.272C67.9815 85.456 67.7775 84.388 67.8015 83.068L67.9095 74.032C67.9095 73.504 67.8255 73.12 67.6575 72.88C67.4895 72.64 67.1895 72.472 66.7575 72.376L66.3255 72.232V71.584L72.4815 70.396L72.8775 70.792L72.6975 75.868V84.04C72.6975 84.856 72.9135 85.456 73.3455 85.84C73.8015 86.2 74.3655 86.38 75.0375 86.38C75.7335 86.38 76.3575 86.284 76.9095 86.092C77.4855 85.876 78.0735 85.564 78.6735 85.156L78.7815 74.068C78.7815 73.516 78.6975 73.132 78.5295 72.916C78.3855 72.7 78.0975 72.532 77.6655 72.412L77.2695 72.304V71.656L83.2815 70.396L83.6775 70.792L83.5695 75.868V85.3C83.5695 85.804 83.6295 86.212 83.7495 86.524C83.8935 86.812 84.1935 87.028 84.6495 87.172L85.1175 87.316V88L79.0335 88.36L78.7095 86.092C77.8935 86.788 77.0055 87.364 76.0455 87.82C75.0855 88.276 74.0055 88.504 72.8055 88.504ZM92.5523 88.468L86.6483 88V87.316L87.0083 87.244C87.9443 87.028 88.4123 86.428 88.4123 85.444V66.724C88.4123 66.244 88.3163 65.872 88.1243 65.608C87.9563 65.344 87.6323 65.152 87.1523 65.032L86.6843 64.924V64.276L92.8403 62.728L93.3083 63.052L93.1643 68.128V71.908C94.8683 70.756 96.7043 70.18 98.6723 70.18C100.688 70.18 102.356 70.924 103.676 72.412C104.996 73.876 105.656 76.144 105.656 79.216C105.656 81.256 105.32 82.972 104.648 84.364C103.976 85.732 103.076 86.764 101.948 87.46C100.82 88.156 99.5723 88.504 98.2043 88.504C97.2923 88.504 96.3803 88.384 95.4683 88.144C94.5803 87.904 93.7883 87.532 93.0923 87.028L92.5523 88.468ZM96.5123 86.92C97.3043 86.92 98.0003 86.692 98.6003 86.236C99.2003 85.78 99.6683 85 100.004 83.896C100.34 82.792 100.508 81.28 100.508 79.36C100.508 77.44 100.352 75.94 100.04 74.86C99.7283 73.78 99.2723 73.024 98.6723 72.592C98.0963 72.16 97.4003 71.944 96.5843 71.944C95.5043 71.944 94.4003 72.256 93.2723 72.88V86.02C94.2563 86.62 95.3363 86.92 96.5123 86.92Z" fill="#063DCC"/>
<g clip-path="url(#clip0_208_69)">
<path d="M43.5696 52.2775C41.2803 54.3634 38.3621 55.0492 35.5626 54.1595C32.7631 53.2697 30.7762 51.025 30.1111 48.0002C30.0692 47.7621 30.1209 47.5169 30.2555 47.316C30.39 47.1151 30.597 46.974 30.8331 46.922C31.0693 46.8701 31.3164 46.9115 31.5228 47.0374C31.7292 47.1634 31.8789 47.3642 31.9408 47.598C32.4674 49.9853 33.9549 51.6811 36.1305 52.3725C38.3061 53.064 40.5041 52.5395 42.3079 50.8928C42.3977 50.8038 42.5046 50.7339 42.6221 50.6872C42.7396 50.6406 42.8653 50.6182 42.9917 50.6214C43.1181 50.6246 43.2426 50.6533 43.3576 50.7059C43.4726 50.7584 43.5758 50.8337 43.6609 50.9272C43.7461 51.0206 43.8115 51.1303 43.8531 51.2497C43.8948 51.3691 43.9119 51.4957 43.9033 51.6218C43.8948 51.748 43.8608 51.8711 43.8035 51.9838C43.7462 52.0965 43.6666 52.1964 43.5696 52.2775ZM53.307 50.9456C52.3523 53.9496 50.5282 56.6031 48.0654 58.5705C45.6026 60.5379 42.6117 61.7307 39.4709 61.9983C36.3301 62.2658 33.1806 61.596 30.4205 60.0736C27.6604 58.5511 25.4137 56.2444 23.9647 53.4451C22.5156 50.6457 21.9291 47.4796 22.2794 44.347C22.6298 41.2144 23.9012 38.256 25.9328 35.846C27.9645 33.4359 30.6652 31.6825 33.6934 30.8073C36.7217 29.9322 39.9414 29.9747 42.9455 30.9294C46.9708 32.214 50.3224 35.0427 52.2648 38.7951C54.2073 42.5475 54.5821 46.9172 53.307 50.9456ZM51.5201 50.3777C52.3625 47.727 52.4 44.8861 51.6279 42.2141C50.8557 39.5421 49.3085 37.1592 47.182 35.3665C45.0555 33.5739 42.4452 32.452 39.6811 32.1429C36.917 31.8338 34.1234 32.3513 31.6534 33.6299C29.1834 34.9085 27.1481 36.8908 25.8047 39.3262C24.4614 41.7616 23.8704 44.5406 24.1064 47.3119C24.3425 50.0831 25.395 52.7222 27.131 54.8952C28.8669 57.0683 31.2082 58.6778 33.8588 59.5202C37.4133 60.6456 41.269 60.315 44.58 58.601C47.891 56.887 50.3869 53.9296 51.5201 50.3777ZM33.2307 42.9255C33.5252 43.0191 33.8409 43.0232 34.1377 42.9374C34.4346 42.8516 34.6994 42.6797 34.8986 42.4434C35.0978 42.2072 35.2224 41.9171 35.2568 41.61C35.2911 41.3029 35.2336 40.9925 35.0915 40.718C34.9495 40.4436 34.7292 40.2175 34.4586 40.0682C34.188 39.9189 33.8792 39.8533 33.5713 39.8795C33.2634 39.9057 32.9702 40.0227 32.7287 40.2155C32.4873 40.4084 32.3084 40.6686 32.2148 40.9631C32.0893 41.358 32.1258 41.7866 32.3163 42.1547C32.5068 42.5227 32.8357 42.7999 33.2307 42.9255ZM44.8987 43.3547C44.6042 43.2611 44.2886 43.257 43.9917 43.3428C43.6948 43.4286 43.43 43.6005 43.2308 43.8367C43.0317 44.073 42.907 44.3631 42.8727 44.6702C42.8383 44.9773 42.8958 45.2877 43.0379 45.5621C43.18 45.8366 43.4002 46.0627 43.6708 46.212C43.9414 46.3613 44.2502 46.4269 44.5581 46.4007C44.866 46.3745 45.1592 46.2575 45.4007 46.0646C45.6422 45.8718 45.821 45.6116 45.9146 45.3171C46.0401 44.9222 46.0036 44.4935 45.8131 44.1255C45.6226 43.7575 45.2937 43.4802 44.8987 43.3547Z" fill="#FFB3F7"/>
</g>
<defs>
<clipPath id="clip0_208_69">
<rect width="40" height="40" fill="white" transform="translate(25.1155 21) rotate(17.6311)"/>
</clipPath>
</defs>
</svg>
