<svg width="53" height="53" viewBox="0 0 53 53" fill="none" xmlns="http://www.w3.org/2000/svg">
<path fill-rule="evenodd" clip-rule="evenodd" d="M26.7968 0.964355C41.0558 0.964355 52.6144 12.5229 52.6144 26.7819C52.6144 41.0409 41.0558 52.5995 26.7968 52.5995C12.5378 52.5995 0.979248 41.0409 0.979248 26.7819C0.979248 12.5229 12.5378 0.964355 26.7968 0.964355Z" fill="white"/>
<path d="M19.2403 41.8393L18.8897 42.5265L17.1299 41.6241L17.956 40.0066C18.2129 39.9302 18.5357 39.9094 18.9244 39.9476C19.3132 39.9892 19.6776 40.0933 20.0109 40.2634C20.4343 40.4821 20.7571 40.7598 20.9793 41.0999C21.2014 41.4366 21.309 41.815 21.2986 42.228C21.2882 42.6376 21.1806 43.0402 20.9828 43.429C20.7641 43.8525 20.4829 44.1822 20.1393 44.4217C19.7957 44.6577 19.4069 44.7792 18.9765 44.7792C18.6467 44.7827 18.2892 44.682 17.9039 44.4842C17.4006 44.2273 17.0605 43.9219 16.8869 43.5644C16.7134 43.2069 16.6821 42.8216 16.7897 42.4085L17.6853 42.6723C17.6401 42.9014 17.6644 43.1131 17.7651 43.311C17.8623 43.5054 18.0289 43.6616 18.2649 43.783C18.619 43.967 18.9626 43.9982 19.2889 43.8802C19.6152 43.7587 19.8928 43.4776 20.1219 43.0333C20.3684 42.5508 20.4482 42.1343 20.358 41.7837C20.2677 41.4332 20.049 41.1694 19.7019 40.9923C19.5319 40.9056 19.3444 40.8535 19.1362 40.8292C18.9314 40.8084 18.7405 40.8153 18.5669 40.85L18.3066 41.3637L19.2403 41.8393ZM16.0435 40.6036C15.7068 40.9264 15.377 41.1416 15.0542 41.2596C14.8147 41.3464 14.5648 41.388 14.308 41.3846C14.0511 41.3811 13.8185 41.336 13.6068 41.2422C13.3222 41.1208 13.0549 40.9264 12.7981 40.6556C12.3329 40.1697 12.1143 39.6386 12.1386 39.059C12.1629 38.4793 12.444 37.9343 12.9785 37.4206C13.5131 36.9139 14.0685 36.6605 14.6446 36.6639C15.2208 36.6639 15.7415 36.9104 16.2031 37.3929C16.6683 37.8823 16.8904 38.4168 16.8661 38.9895C16.8453 39.5657 16.5711 40.1037 16.0435 40.6036ZM15.3666 39.9406C15.7415 39.5831 15.9428 39.229 15.9706 38.8715C15.9983 38.514 15.8873 38.2051 15.6339 37.9378C15.3805 37.6706 15.0751 37.5456 14.721 37.556C14.367 37.5699 13.999 37.7573 13.6172 38.1218C13.2389 38.4828 13.0376 38.8333 13.0098 39.177C12.982 39.5206 13.1 39.8295 13.3604 40.1037C13.6242 40.378 13.9261 40.5099 14.2767 40.4994C14.6238 40.489 14.9883 40.3016 15.3666 39.9406ZM12.267 36.3064C11.847 36.4973 11.4617 36.5945 11.1181 36.598C10.8612 36.6015 10.6148 36.5563 10.3718 36.4696C10.1288 36.3828 9.92404 36.2613 9.75396 36.1016C9.52834 35.8934 9.3409 35.6192 9.18818 35.2825C8.91049 34.6716 8.87926 34.0954 9.09099 33.5574C9.30619 33.0194 9.75396 32.5959 10.4273 32.2904C11.1007 31.985 11.7081 31.9329 12.2496 32.1238C12.7946 32.3182 13.2042 32.7209 13.4784 33.3283C13.7595 33.9461 13.7908 34.5223 13.579 35.0569C13.3673 35.5914 12.93 36.0079 12.267 36.3064ZM11.8505 35.456C12.3191 35.2443 12.628 34.9736 12.7738 34.6473C12.9161 34.321 12.9126 33.9878 12.7633 33.6546C12.6106 33.3213 12.3676 33.0992 12.0275 32.9951C11.6908 32.8875 11.2812 32.943 10.7987 33.1617C10.3232 33.3769 10.0143 33.6441 9.87544 33.9565C9.7366 34.2724 9.74354 34.6022 9.89974 34.9493C10.0559 35.2929 10.3024 35.5185 10.6321 35.6226C10.9653 35.7268 11.3715 35.6712 11.8505 35.456ZM7.80671 30.9576L7.68175 29.288C7.65398 28.9097 7.65745 28.6216 7.70258 28.4202C7.75811 28.1495 7.88307 27.91 8.06703 27.7052C8.25447 27.5004 8.48703 27.3373 8.77165 27.2158C9.05281 27.0943 9.40685 27.0179 9.83032 26.9867C10.2052 26.9589 10.5315 26.9798 10.8092 27.0527C11.1458 27.1394 11.427 27.2817 11.6457 27.4761C11.8123 27.6219 11.9511 27.8267 12.0587 28.0905C12.1386 28.2883 12.1906 28.5556 12.2149 28.8923L12.3468 30.6139L7.80671 30.9576ZM8.50438 29.9822L11.5103 29.7531L11.4582 29.0728C11.4374 28.8159 11.4096 28.6354 11.3715 28.5244C11.3229 28.3786 11.25 28.2606 11.1563 28.1703C11.0591 28.0766 10.9063 28.0107 10.6981 27.9655C10.4933 27.9169 10.2121 27.9065 9.86156 27.9343C9.51098 27.9621 9.24371 28.0107 9.05975 28.087C8.87926 28.1634 8.73694 28.2606 8.64323 28.3786C8.54604 28.5001 8.48356 28.6459 8.45926 28.8194C8.44191 28.9478 8.44538 29.2012 8.47315 29.5726L8.50438 29.9822ZM12.7356 23.297L9.15347 22.0821L8.71959 23.3595L7.99067 23.113L9.15 19.6941L9.87891 19.9405L9.44851 21.2109L13.0306 22.4223L12.7356 23.297ZM13.7977 20.6798L9.85462 18.4098L10.3128 17.6114L14.2594 19.8815L13.7977 20.6798ZM14.5995 19.045L11.3055 15.9037L12.26 14.904L15.0681 16.4591L13.3777 13.7308L14.3323 12.7312L17.6263 15.8725L17.0397 16.4868L14.4433 14.0189L16.4183 17.1394L15.8074 17.7815L12.5967 15.9558L15.1896 18.4306L14.5995 19.045ZM18.4177 15.3379L16.342 11.2872L19.341 9.74955L19.6915 10.4333L17.5152 11.551L17.9734 12.45L20.0005 11.4122L20.351 12.096L18.3239 13.1338L18.8862 14.2307L21.1459 13.0748L21.4965 13.7586L18.4177 15.3379ZM21.7464 12.0543L22.6141 11.8079C22.7183 12.0925 22.8641 12.2903 23.0515 12.4014C23.2355 12.509 23.468 12.5403 23.7422 12.4917C24.0303 12.4396 24.2386 12.3389 24.3635 12.1897C24.4885 12.0404 24.5371 11.8842 24.5093 11.7176C24.4885 11.6135 24.4399 11.5267 24.367 11.4642C24.2906 11.4018 24.1726 11.3566 24.0095 11.3289C23.895 11.3115 23.645 11.2872 23.2528 11.2629C22.746 11.2247 22.3816 11.138 22.156 10.9991C21.8366 10.8013 21.6457 10.5236 21.5832 10.1661C21.5416 9.93698 21.5694 9.71137 21.6631 9.48922C21.7533 9.26707 21.913 9.08311 22.1386 8.93733C22.3608 8.78807 22.6454 8.68394 22.989 8.62146C23.5478 8.5208 23.9956 8.5694 24.3219 8.77072C24.6482 8.96856 24.8564 9.27402 24.9467 9.68707L24.0442 9.88145C23.9644 9.65583 23.8533 9.5031 23.7075 9.42674C23.5652 9.34691 23.3639 9.32955 23.1105 9.37468C22.8502 9.42327 22.6558 9.51352 22.5274 9.64889C22.4475 9.73219 22.4163 9.83632 22.4371 9.95087C22.4545 10.0585 22.517 10.1418 22.6176 10.2008C22.7495 10.2771 23.0445 10.3257 23.5027 10.3535C23.9609 10.3778 24.3045 10.4299 24.5336 10.5028C24.7627 10.5757 24.9536 10.6971 25.1098 10.8707C25.2625 11.0408 25.3632 11.2699 25.4153 11.551C25.4604 11.8079 25.4326 12.0613 25.3285 12.3112C25.2278 12.5611 25.0543 12.7624 24.8148 12.9186C24.5718 13.0748 24.2559 13.1859 23.8672 13.2553C23.3014 13.356 22.8432 13.3039 22.4927 13.0991C22.1421 12.8908 21.8956 12.5437 21.7464 12.0543ZM30.66 11.7176L30.8336 10.9679L32.76 11.4122L32.3504 13.1824C32.1213 13.3212 31.8159 13.4184 31.4271 13.4774C31.0383 13.533 30.6635 13.5191 30.299 13.4358C29.8339 13.3282 29.4521 13.1373 29.1536 12.8631C28.8551 12.5889 28.6607 12.2487 28.5704 11.8461C28.4802 11.4434 28.4837 11.0304 28.5808 10.6034C28.6885 10.1418 28.8828 9.75302 29.157 9.43715C29.4347 9.12129 29.7818 8.90956 30.1984 8.80543C30.5177 8.72212 30.8856 8.72906 31.3091 8.82625C31.861 8.95468 32.2636 9.16988 32.5205 9.47186C32.7773 9.77732 32.9023 10.1418 32.8953 10.5687L31.9651 10.5305C31.9547 10.3014 31.8749 10.1001 31.7325 9.93351C31.5902 9.7669 31.3889 9.65583 31.1321 9.59682C30.7398 9.50658 30.4031 9.55864 30.115 9.75302C29.827 9.9474 29.6256 10.291 29.5146 10.7804C29.3931 11.308 29.4174 11.728 29.5909 12.0474C29.7645 12.3632 30.0387 12.5646 30.417 12.6548C30.6045 12.6965 30.8023 12.7034 31.0071 12.6722C31.2119 12.6444 31.3924 12.5923 31.5521 12.516L31.684 11.9537L30.66 11.7176ZM34.0477 12.2175C34.2976 11.8287 34.5684 11.5371 34.853 11.3462C35.0647 11.2074 35.2973 11.1067 35.5472 11.0477C35.7971 10.9887 36.0366 10.9818 36.2657 11.0199C36.5677 11.072 36.8766 11.197 37.189 11.3983C37.7548 11.7593 38.095 12.2244 38.2095 12.7936C38.324 13.3629 38.1783 13.9599 37.7791 14.5847C37.3799 15.2025 36.9009 15.5809 36.3421 15.7163C35.7798 15.8516 35.2175 15.7371 34.6552 15.3761C34.0859 15.0116 33.7423 14.5465 33.6277 13.9807C33.5167 13.4184 33.6555 12.8284 34.0477 12.2175ZM34.86 12.7034C34.5823 13.1373 34.4712 13.533 34.5302 13.8835C34.5857 14.2376 34.7697 14.5118 35.0786 14.7097C35.3875 14.911 35.7138 14.9596 36.054 14.8659C36.3941 14.7687 36.7065 14.4979 36.9912 14.0536C37.2758 13.6128 37.3903 13.2241 37.3348 12.8839C37.2793 12.5437 37.0918 12.273 36.7725 12.0682C36.4532 11.8634 36.1234 11.8079 35.7902 11.9016C35.4535 11.9953 35.1446 12.2626 34.86 12.7034ZM38.685 15.5427C39.0495 15.2546 39.4001 15.0706 39.7333 14.9839C39.9797 14.9214 40.2331 14.904 40.4865 14.9318C40.7434 14.9561 40.9724 15.029 41.1738 15.1401C41.4445 15.2893 41.6944 15.508 41.9235 15.7996C42.3366 16.3272 42.5032 16.8791 42.4268 17.4518C42.347 18.028 42.0172 18.5451 41.4341 19.0033C40.8544 19.458 40.2748 19.6559 39.702 19.6003C39.1293 19.5413 38.6364 19.2498 38.2234 18.7256C37.8034 18.1911 37.6333 17.6392 37.7131 17.07C37.7895 16.5007 38.1158 15.9905 38.685 15.5427ZM39.2959 16.2682C38.8898 16.5875 38.6573 16.9242 38.5948 17.2748C38.5323 17.6253 38.6156 17.9481 38.8412 18.2362C39.0668 18.5243 39.3584 18.6805 39.7125 18.7013C40.063 18.7222 40.4483 18.5694 40.8648 18.2432C41.2744 17.9204 41.5105 17.5906 41.5695 17.2505C41.6319 16.9138 41.5452 16.5944 41.3091 16.2959C41.0731 15.9974 40.7815 15.8377 40.4344 15.8169C40.0873 15.7926 39.709 15.9453 39.2959 16.2682ZM44.2109 19.6663L44.7489 21.2526C44.8704 21.6135 44.9364 21.8947 44.9433 22.0995C44.9537 22.3772 44.8947 22.641 44.7663 22.8839C44.6379 23.1269 44.4504 23.3421 44.2074 23.5296C43.961 23.717 43.6382 23.8801 43.2356 24.0155C42.878 24.137 42.5587 24.196 42.2741 24.196C41.9235 24.1925 41.6181 24.1266 41.3543 23.9912C41.1564 23.8905 40.9724 23.7239 40.8058 23.4983C40.6774 23.3282 40.5629 23.0818 40.4518 22.759L39.8999 21.1241L44.2109 19.6663ZM43.777 20.7874L40.9238 21.7524L41.1425 22.398C41.2258 22.641 41.2987 22.8111 41.3612 22.9082C41.4445 23.0401 41.5452 23.1339 41.6597 23.1998C41.7743 23.2623 41.9409 23.2901 42.1526 23.2831C42.3643 23.2796 42.6385 23.2172 42.9718 23.1061C43.305 22.9915 43.5479 22.877 43.7076 22.759C43.8673 22.641 43.9784 22.5091 44.0443 22.3702C44.1068 22.2314 44.1276 22.0752 44.1103 21.9016C44.0964 21.7697 44.0304 21.5302 43.9089 21.1762L43.777 20.7874ZM41.2085 28.4723L45.9291 27.431L45.8041 28.4168L42.3157 29.1387L45.5195 30.6625L45.3945 31.6344L41.0835 29.4546L41.2085 28.4723ZM40.6739 31.4643L44.985 32.9222L44.6899 33.7969L40.3789 32.339L40.6739 31.4643ZM44.0929 35.4664L43.1835 37.0458C43.003 37.3582 42.8572 37.5838 42.7427 37.7226C42.6281 37.8615 42.4962 37.9656 42.3435 38.042C42.1908 38.1148 42.0242 38.153 41.8402 38.153C41.6562 38.1565 41.4792 38.1079 41.3091 38.0107C41.1252 37.9066 40.9863 37.7573 40.8891 37.5699C40.7919 37.3825 40.7538 37.1811 40.7746 36.9694C40.5663 37.1672 40.3407 37.2818 40.0977 37.313C39.8548 37.3443 39.6187 37.2957 39.3897 37.1638C39.2126 37.0596 39.0599 36.9173 38.9384 36.7368C38.8169 36.5563 38.744 36.3654 38.7267 36.1606C38.7093 35.9593 38.7475 35.7441 38.8482 35.5185C38.9106 35.3762 39.0842 35.0534 39.3723 34.5431L40.1463 33.1999L44.0929 35.4664ZM42.9752 35.8899L42.0658 35.3658L41.7673 35.8899C41.5903 36.1988 41.4827 36.3932 41.448 36.473C41.3855 36.6188 41.3716 36.7542 41.4029 36.8757C41.4376 37.0006 41.5174 37.0944 41.6458 37.1707C41.7673 37.2401 41.8853 37.261 41.9999 37.2401C42.1144 37.2158 42.2185 37.143 42.3088 37.018C42.3643 36.9451 42.4997 36.7195 42.7149 36.3481L42.9752 35.8899ZM41.4098 34.9909L40.3546 34.38L39.9277 35.1193C39.7645 35.4074 39.6673 35.5949 39.6396 35.6816C39.591 35.8101 39.591 35.9385 39.6292 36.06C39.6708 36.1815 39.7611 36.2856 39.8999 36.3654C40.0214 36.4349 40.1359 36.4626 40.2539 36.4522C40.3685 36.4418 40.4761 36.3932 40.5767 36.3064C40.6774 36.2197 40.8336 35.9975 41.0419 35.6331L41.4098 34.9909ZM37.6611 37.0596L40.8024 40.3537L38.3657 42.6793L37.8346 42.1204L39.6049 40.4335L38.9072 39.7011L37.2619 41.2735L36.7308 40.7146L38.3761 39.1457L37.5257 38.2537L35.6895 40.0031L35.1585 39.4477L37.6611 37.0596ZM35.2938 41.1242L34.5128 41.5755C34.3428 41.3221 34.1519 41.1694 33.9471 41.1069C33.7388 41.0444 33.5062 41.0722 33.2529 41.1902C32.9856 41.3082 32.8086 41.4574 32.7253 41.6345C32.6385 41.808 32.6315 41.9746 32.6975 42.1274C32.7426 42.2245 32.8086 42.294 32.8988 42.3391C32.9856 42.3807 33.114 42.3946 33.2806 42.3807C33.3917 42.3703 33.6416 42.3322 34.0269 42.2593C34.5267 42.1725 34.9016 42.1655 35.155 42.2488C35.5125 42.3634 35.7659 42.5855 35.9151 42.9118C36.0089 43.1235 36.0401 43.3492 36.0054 43.5887C35.9672 43.8282 35.8596 44.0434 35.6791 44.2412C35.4986 44.4391 35.2487 44.6126 34.9294 44.7549C34.4122 44.991 33.9679 45.05 33.6034 44.9389C33.2355 44.8278 32.9613 44.5814 32.7739 44.203L33.6 43.7935C33.7319 43.9913 33.8776 44.1128 34.0373 44.151C34.197 44.1926 34.3948 44.1614 34.6274 44.0538C34.8669 43.9462 35.0335 43.8108 35.1237 43.6477C35.1828 43.5435 35.1897 43.4394 35.1411 43.3283C35.096 43.2311 35.0161 43.1652 34.9016 43.134C34.7558 43.0923 34.4573 43.1166 34.0095 43.2034C33.5583 43.2902 33.2147 43.3249 32.9717 43.311C32.7322 43.2971 32.517 43.2242 32.3261 43.0958C32.1352 42.9674 31.979 42.773 31.861 42.5092C31.7534 42.2731 31.7187 42.0198 31.7568 41.7525C31.795 41.4852 31.913 41.2457 32.1074 41.0375C32.3053 40.8257 32.583 40.6418 32.9439 40.4786C33.4681 40.2426 33.9228 40.1801 34.315 40.2947C34.7038 40.4092 35.03 40.6869 35.2938 41.1242Z" fill="#063DCC"/>
<path fill-rule="evenodd" clip-rule="evenodd" d="M26.7968 15.8135C32.8538 15.8135 37.7653 20.725 37.7653 26.7819C37.7653 32.8389 32.8538 37.7504 26.7968 37.7504C20.7399 37.7504 15.8284 32.8389 15.8284 26.7819C15.8284 20.725 20.7399 15.8135 26.7968 15.8135Z" fill="#FFF6D2"/>
<path d="M26.797 3.76196C33.1525 3.76196 38.9109 6.33747 43.0762 10.5027C47.2414 14.668 49.8204 20.4264 49.8204 26.7819C49.8204 33.1408 47.2414 38.8958 43.0762 43.061C38.9109 47.2263 33.1559 49.8052 26.797 49.8052C20.4415 49.8052 14.6831 47.2263 10.5178 43.061C6.35261 38.8958 3.7771 33.1408 3.7771 26.7819C3.7771 20.4264 6.35261 14.668 10.5178 10.5027C14.6831 6.33747 20.4381 3.76196 26.797 3.76196ZM42.7672 10.8116C38.6818 6.72275 33.0344 4.19584 26.797 4.19584C20.5596 4.19584 14.9122 6.72275 10.8268 10.8116C6.73789 14.9005 4.21098 20.5444 4.21098 26.7819C4.21098 33.0193 6.73789 38.6667 10.8268 42.7521C14.9122 46.841 20.5596 49.3679 26.797 49.3679C33.0344 49.3679 38.6818 46.841 42.7672 42.7521C46.8561 38.6667 49.383 33.0193 49.383 26.7819C49.383 20.5444 46.8561 14.897 42.7672 10.8116Z" fill="#063DCC"/>
<path fill-rule="evenodd" clip-rule="evenodd" d="M23.5305 20.2806C24.4121 20.2806 25.1237 21.6586 25.1237 23.356C25.1237 25.0533 24.4121 26.4313 23.5305 26.4313C22.6488 26.4313 21.9373 25.0533 21.9373 23.356C21.9373 21.6586 22.6488 20.2806 23.5305 20.2806Z" fill="#063DCC"/>
<path fill-rule="evenodd" clip-rule="evenodd" d="M29.8061 20.2806C30.6843 20.2806 31.3994 21.6586 31.3994 23.356C31.3994 25.0533 30.6843 26.4313 29.8061 26.4313C28.9245 26.4313 28.2095 25.0533 28.2095 23.356C28.2095 21.6586 28.9245 20.2806 29.8061 20.2806Z" fill="#063DCC"/>
<path d="M34.4572 27.9586C34.0372 29.6664 33.0618 31.1554 31.7324 32.2245C30.3787 33.3109 28.664 33.96 26.7966 33.96C24.9292 33.96 23.2145 33.3109 21.8608 32.2245C20.5314 31.1554 19.556 29.6664 19.136 27.9586C19.0041 27.9239 18.8827 27.8649 18.782 27.7816C18.6189 27.6532 18.5043 27.4692 18.4557 27.2609C18.4245 27.1151 18.5182 26.9728 18.664 26.9416C18.8098 26.9104 18.9555 27.0006 18.9868 27.1464C19.0041 27.2332 19.0527 27.3095 19.1187 27.3616C19.1812 27.4137 19.2645 27.4449 19.3547 27.4449C19.4484 27.4449 19.5283 27.4137 19.5942 27.3616C19.6602 27.3095 19.7088 27.2332 19.7261 27.1464C19.7574 27.0006 19.9031 26.9104 20.0489 26.9416C20.1947 26.9728 20.285 27.1151 20.2537 27.2609C20.2086 27.4692 20.0906 27.6532 19.9309 27.7816C19.858 27.8406 19.7747 27.8892 19.6845 27.9239C20.0871 29.4755 20.9861 30.8292 22.1975 31.8045C23.4575 32.8146 25.0542 33.422 26.7966 33.422C28.5391 33.422 30.1357 32.8146 31.3957 31.8045C32.6071 30.8292 33.5061 29.4755 33.9088 27.9239C33.8185 27.8892 33.7352 27.8406 33.6623 27.7816C33.4992 27.6532 33.3846 27.4692 33.3395 27.2609C33.3083 27.1151 33.3985 26.9728 33.5443 26.9416C33.6901 26.9104 33.8359 27.0006 33.8671 27.1464C33.8845 27.2332 33.9331 27.3095 33.999 27.3616C34.0615 27.4137 34.1448 27.4449 34.235 27.4449C34.3288 27.4449 34.4086 27.4137 34.4745 27.3616C34.5405 27.3095 34.5891 27.2332 34.6064 27.1464C34.6377 27.0006 34.7835 26.9104 34.9292 26.9416C35.075 26.9728 35.1653 27.1151 35.134 27.2609C35.0889 27.4692 34.9709 27.6532 34.8112 27.7816C34.7106 27.8649 34.5891 27.9239 34.4572 27.9586Z" fill="#063DCC"/>
<path fill-rule="evenodd" clip-rule="evenodd" d="M23.9159 20.9852C24.1311 20.9852 24.3047 21.3219 24.3047 21.735C24.3047 22.1515 24.1311 22.4882 23.9159 22.4882C23.7007 22.4882 23.5237 22.1515 23.5237 21.735C23.5237 21.3219 23.7007 20.9852 23.9159 20.9852Z" fill="white"/>
<path fill-rule="evenodd" clip-rule="evenodd" d="M30.2921 20.9852C30.5073 20.9852 30.6809 21.3219 30.6809 21.735C30.6809 22.1515 30.5073 22.4882 30.2921 22.4882C30.0769 22.4882 29.8999 22.1515 29.8999 21.735C29.8999 21.3219 30.0769 20.9852 30.2921 20.9852Z" fill="white"/>
</svg>
